<svg xmlns="http://www.w3.org/2000/svg" xmlns:xlink="http://www.w3.org/1999/xlink" width="56.675" height="60" xmlns:v="https://vecta.io/nano"><g fill="#8f00fc"><use xlink:href="#B"/><use xlink:href="#B" y="23.28"/><path d="M5.465 34.252a.86.86 0 0 1-.857-.857v-6.786a.86.86 0 0 1 .857-.857.86.86 0 0 1 .857.857v6.789a.86.86 0 0 1-.857.854zM47.344 60H8.037a3.43 3.43 0 0 1-3.429-3.429v-6.677a.86.86 0 0 1 .857-.857.86.86 0 0 1 .857.857v6.677c0 .947.767 1.714 1.714 1.714h39.308a2.57 2.57 0 0 0 2.571-2.571V4.286a2.57 2.57 0 0 0-2.571-2.571H8.037c-.455 0-.891.181-1.212.502s-.502.757-.502 1.212v6.677a.86.86 0 0 1-.857.857.86.86 0 0 1-.857-.857V3.429A3.43 3.43 0 0 1 8.037 0h39.307a4.29 4.29 0 0 1 4.286 4.286v51.428A4.29 4.29 0 0 1 47.344 60z"/><path d="M15.748 35.529a.86.86 0 0 1-.857-.857v-2.546c0-.306.163-.589.428-.742s.592-.153.857 0 .429.436.428.742v2.546a.86.86 0 0 1-.857.857zm0 24.471a.86.86 0 0 1-.857-.857v-9.977c0-.306.163-.589.428-.742s.592-.153.857 0 .429.436.428.742v9.977a.86.86 0 0 1-.857.857zm0-15.977a.86.86 0 0 1-.857-.857v-2.495c0-.306.163-.589.428-.742s.592-.153.857 0 .429.436.428.742v2.493c.001.228-.09.446-.25.607s-.379.252-.607.252zm0-17.04a.86.86 0 0 1-.857-.857V.857c0-.306.163-.589.428-.742s.592-.153.857 0 .429.436.428.742v25.269a.86.86 0 0 1-.857.857zM7.715 15.821H3.286c-1.815 0-3.285-1.471-3.285-3.285S1.471 9.25 3.286 9.25h4.429C9.53 9.25 11 10.721 11 12.536s-1.471 3.285-3.285 3.285zm-4.429-4.857a1.57 1.57 0 1 0 0 3.142h4.429a1.57 1.57 0 1 0 0-3.142zm4.429 16.501H3.286c-1.174 0-2.259-.626-2.846-1.643s-.587-2.269 0-3.286 1.672-1.643 2.846-1.643h4.429c1.174 0 2.259.626 2.846 1.643s.587 2.269 0 3.286-1.672 1.643-2.846 1.643zm-4.429-4.858a1.57 1.57 0 0 0-1.532 1.572 1.57 1.57 0 0 0 1.532 1.572h4.429a1.57 1.57 0 0 0 1.532-1.572 1.57 1.57 0 0 0-1.532-1.572zm4.429 16.5H3.286C1.471 39.107 0 37.636 0 35.821s1.471-3.286 3.286-3.286h4.429c1.815 0 3.286 1.471 3.286 3.286s-1.471 3.286-3.286 3.286zm-4.429-4.858a1.57 1.57 0 0 0-1.532 1.572 1.57 1.57 0 0 0 1.532 1.572h4.429a1.57 1.57 0 0 0 1.532-1.572 1.57 1.57 0 0 0-1.532-1.572zM7.715 50.75H3.286c-1.815 0-3.285-1.471-3.285-3.285s1.471-3.285 3.285-3.285h4.429C9.53 44.18 11 45.651 11 47.465S9.53 50.75 7.715 50.75zm-4.429-4.857a1.571 1.571 0 1 0 0 3.142h4.429a1.571 1.571 0 1 0 0-3.142zM41.136 30H25.388a.86.86 0 0 1-.857-.857v-2.895c.007-3.388 2.755-6.132 6.143-6.133h5.186c3.388.004 6.134 2.75 6.138 6.138v2.895a.86.86 0 0 1-.857.857zm-14.89-1.714h14.028v-2.038a4.43 4.43 0 0 0-4.424-4.424h-5.176a4.43 4.43 0 0 0-4.429 4.424z"/><path d="M33.262 21.812c-2.946 0-5.335-2.389-5.335-5.335s2.389-5.335 5.335-5.335 5.335 2.389 5.335 5.335a5.33 5.33 0 0 1-1.563 3.772c-1.001 1-2.357 1.563-3.772 1.563zm0-8.955a3.62 3.62 0 1 0 3.621 3.62 3.62 3.62 0 0 0-3.621-3.62zm21.699 5.147h-4.188a.86.86 0 0 1-.857-.857V9.231a.86.86 0 0 1 .857-.857h4.188a1.72 1.72 0 0 1 1.714 1.714v6.2a1.72 1.72 0 0 1-1.714 1.72zM51.63 16.29h3.331v-6.2h-3.334z"/><path d="M54.961 25.924h-4.188c-.473 0-.857-.384-.857-.857v-7.918c0-.473.384-.857.857-.857h4.188a1.72 1.72 0 0 1 1.714 1.714v6.2a1.72 1.72 0 0 1-1.714 1.718zM51.63 24.21h3.331v-6.2h-3.334z"/><path d="M54.961 33.84h-4.188c-.473 0-.857-.384-.857-.857v-7.918c0-.473.384-.857.857-.857h4.188a1.72 1.72 0 0 1 1.714 1.714v6.2a1.72 1.72 0 0 1-1.714 1.72zm-3.331-1.714h3.331v-6.2h-3.334z"/></g><defs ><path id="B" d="M5.465 22.612c-.473 0-.857-.384-.857-.857v-6.789c0-.473.384-.857.857-.857s.857.384.857.857v6.789c0 .227-.09.445-.251.606s-.379.251-.606.251z"/></defs></svg>