<svg xmlns="http://www.w3.org/2000/svg" xmlns:xlink="http://www.w3.org/1999/xlink" width="60.001" height="60" xmlns:v="https://vecta.io/nano"><g fill="#8f00fc"><path d="M57.895 22.423c-.378-.001-.712-.249-.82-.612l-.83-2.373c-.116-.283-.072-.607.116-.849a.86.86 0 0 1 .794-.325c.304.041.562.241.678.525.316.776.614 1.629.885 2.531a.86.86 0 0 1-.822 1.103zM29.996 60A30 30 0 1 1 48.939 6.733c.367.299.422.839.123 1.206s-.839.422-1.206.123A28.29 28.29 0 0 0 4.448 42.138 28.29 28.29 0 0 0 58.282 30l-.075-2.072a.86.86 0 0 1 .794-.919.86.86 0 0 1 .919.794l.079 2.2C59.98 46.564 46.557 59.983 29.996 60zm24.233-45.342a.86.86 0 0 1-.714-.381l-1.438-1.953c-.192-.239-.241-.562-.13-.847a.86.86 0 0 1 .669-.537c.303-.047.607.072.799.311l1.527 2.075c.176.263.192.601.043.88s-.439.453-.755.453zM29.997 52.285c-9.014 0-17.141-5.429-20.59-13.757a22.29 22.29 0 0 1 4.83-24.288c6.373-6.374 15.96-8.28 24.288-4.83S52.282 20.986 52.282 30a22.29 22.29 0 0 1-22.285 22.285zm0-42.857c-11.361 0-20.571 9.21-20.571 20.571s9.209 20.571 20.57 20.571S50.567 41.361 50.568 30A20.57 20.57 0 0 0 29.997 9.428zm-.001-3.56c-.227 0-.446-.09-.606-.251a.86.86 0 0 1-.251-.607v-.832c0-.306.163-.589.428-.742s.592-.153.857 0 .429.436.428.742v.832a.86.86 0 0 1-.251.607c-.161.161-.379.251-.606.251zm0 50.81a.86.86 0 0 1-.857-.857v-.832a.86.86 0 0 1 .857-.857.86.86 0 0 1 .857.857v.832a.86.86 0 0 1-.857.857z"/><use xlink:href="#B"/><use xlink:href="#B" x="-35.927" y="35.928"/><path d="M55.818 30.857h-.832a.86.86 0 0 1-.857-.857.86.86 0 0 1 .857-.857h.832a.86.86 0 0 1 .857.857.86.86 0 0 1-.857.857zm-50.811 0h-.832c-.306 0-.589-.163-.742-.428s-.153-.592 0-.857.436-.429.742-.428h.832c.306 0 .589.163.742.428s.153.592 0 .857-.436.429-.742.428z"/><use xlink:href="#C"/><use xlink:href="#C" x="-35.927" y="-35.928"/><path d="M29.997 30.857a6 6 0 1 1 0-12 6 6 0 0 1 6 6c0 .306-.163.589-.428.742s-.592.153-.857 0-.429-.436-.428-.742c0-2.367-1.919-4.286-4.286-4.286s-4.286 1.919-4.286 4.286 1.919 4.286 4.286 4.286c.473 0 .857.384.857.857s-.384.857-.857.857z"/><path d="M29.997 41.143a6.01 6.01 0 0 1-6-6c0-.473.384-.857.857-.857s.857.384.857.857c0 2.367 1.919 4.286 4.286 4.286s4.286-1.919 4.286-4.286-1.919-4.286-4.286-4.286c-.473 0-.857-.384-.857-.857s.384-.857.857-.857a6 6 0 1 1 0 12z"/><path d="M29.996 43.217c-.227 0-.445-.09-.606-.251s-.251-.379-.251-.606V17.64c0-.306.163-.589.428-.742s.592-.153.857 0 .429.436.428.742v24.72c0 .227-.09.445-.251.606s-.379.251-.606.251z"/></g><defs ><path id="B" d="M47.666 13.186c-.347 0-.659-.209-.792-.529s-.059-.689.186-.934l.589-.589c.335-.335.877-.335 1.212 0s.335.877 0 1.212l-.589.589c-.161.161-.379.251-.606.251z"/><path id="C" d="M48.254 49.114c-.227 0-.445-.09-.606-.251l-.589-.589c-.335-.335-.335-.877 0-1.212s.877-.335 1.212 0l.589.589c.245.245.318.614.186.934s-.445.529-.792.529z"/></defs></svg>