<svg xmlns="http://www.w3.org/2000/svg" xmlns:xlink="http://www.w3.org/1999/xlink" width="46.286" height="60" xmlns:v="https://vecta.io/nano"><g fill="#8f00fc"><path d="M45.428 34.801a.86.86 0 0 1-.607-.252c-.161-.161-.251-.38-.25-.607v-2.494a.86.86 0 0 1 .857-.857.86.86 0 0 1 .857.857v2.494c.001.228-.09.446-.25.607s-.379.252-.607.252zM45.429 60H.857A.86.86 0 0 1 0 59.143V.857A.86.86 0 0 1 .857 0h31.714c.227 0 .445.09.606.251l12.858 12.857c.161.161.251.379.251.606v11.735a.86.86 0 0 1-.857.857.86.86 0 0 1-.857-.857v-11.38L32.217 1.714h-30.5v56.572h42.854v-9.8a.86.86 0 0 1 .857-.857.86.86 0 0 1 .857.857v10.657c0 .473-.383.856-.856.857z"/><path d="M45.428 43.346a.86.86 0 0 1-.607-.252c-.161-.161-.251-.38-.25-.608v-2.543a.86.86 0 0 1 .857-.857.86.86 0 0 1 .857.857v2.543c.001.228-.089.447-.25.608a.86.86 0 0 1-.607.252zm0-28.775H32.571c-.227 0-.445-.09-.606-.251s-.251-.379-.251-.606V.857A.86.86 0 0 1 32.571 0a.86.86 0 0 1 .857.857v12h12a.86.86 0 0 1 .857.857.86.86 0 0 1-.857.857zM24.857 12H6.428a.86.86 0 0 1-.857-.857.86.86 0 0 1 .857-.857h18.429a.86.86 0 0 1 .857.857.86.86 0 0 1-.857.857z"/><use xlink:href="#B"/><use xlink:href="#B" y="8.572"/><path d="M39.857 37.714H6.428a.86.86 0 0 1-.857-.857.86.86 0 0 1 .857-.857h33.429a.86.86 0 0 1 .857.857.86.86 0 0 1-.857.857zM15.215 54.469a2.78 2.78 0 0 1-1.564-.747 4.5 4.5 0 0 0-.579-.4 4.5 4.5 0 0 0-.579.4c-.567.434-1.273.972-2.057.646-.807-.335-.924-1.233-1.018-1.956a4.7 4.7 0 0 0-.111-.645 4.9 4.9 0 0 0-.645-.111c-.723-.094-1.621-.212-1.956-1.018-.327-.789.213-1.494.646-2.057a4.5 4.5 0 0 0 .4-.582 4.5 4.5 0 0 0-.4-.579c-.434-.567-.973-1.272-.646-2.057.335-.807 1.233-.924 1.956-1.018a4.7 4.7 0 0 0 .645-.111 4.9 4.9 0 0 0 .111-.645c.094-.723.212-1.621 1.018-1.956.788-.326 1.494.213 2.057.646a4.5 4.5 0 0 0 .579.4 4.5 4.5 0 0 0 .579-.4c.567-.429 1.274-.972 2.057-.646.807.335.924 1.233 1.018 1.956a4.7 4.7 0 0 0 .111.645 4.9 4.9 0 0 0 .645.111c.723.094 1.621.212 1.956 1.018.327.789-.213 1.494-.646 2.057a4.5 4.5 0 0 0-.4.579 4.5 4.5 0 0 0 .4.579c.434.567.973 1.272.646 2.057-.335.807-1.233.924-1.956 1.018a4.76 4.76 0 0 0-.645.111 4.9 4.9 0 0 0-.111.645c-.094.723-.212 1.621-1.018 1.956a1.3 1.3 0 0 1-.489.1zm-2.143-2.874a2.83 2.83 0 0 1 1.621.765l.282.212.054-.381a2.72 2.72 0 0 1 .585-1.65 2.72 2.72 0 0 1 1.649-.585l.381-.054-.212-.282a2.83 2.83 0 0 1-.765-1.621 2.83 2.83 0 0 1 .765-1.621l.212-.282-.381-.054a2.72 2.72 0 0 1-1.65-.585 2.72 2.72 0 0 1-.585-1.649l-.054-.381-.282.212a2.83 2.83 0 0 1-1.621.765 2.83 2.83 0 0 1-1.621-.765l-.282-.212-.054.381a2.72 2.72 0 0 1-.585 1.65 2.72 2.72 0 0 1-1.649.585l-.381.054.212.282A2.83 2.83 0 0 1 9.476 48a2.83 2.83 0 0 1-.765 1.621l-.212.282.381.054a2.72 2.72 0 0 1 1.65.585 2.72 2.72 0 0 1 .585 1.649l.054.381.282-.212a2.83 2.83 0 0 1 1.621-.765zm26.786-1.881H26.786a.86.86 0 0 1-.857-.857.86.86 0 0 1 .857-.857h13.072a.86.86 0 0 1 .857.857.86.86 0 0 1-.857.857z"/></g><defs ><path id="B" d="M39.857 20.571H6.428c-.473 0-.857-.384-.857-.857s.384-.857.857-.857h33.429c.473 0 .857.384.857.857s-.384.857-.857.857z"/></defs></svg>