<svg xmlns="http://www.w3.org/2000/svg" xmlns:xlink="http://www.w3.org/1999/xlink" width="466" height="428" viewBox="0 0 466 428"><defs><clipPath id="a"><rect width="466" height="428" transform="translate(1039 1406)" fill="#fff" stroke="#707070" stroke-width="1"/></clipPath><linearGradient id="b" x1="0.882" y1="0.687" x2="-0.083" y2="0.592" gradientUnits="objectBoundingBox"><stop offset="0" stop-color="#2cc3ff"/><stop offset="1" stop-color="#47bffa" stop-opacity="0.149"/></linearGradient><linearGradient id="c" x1="0.966" y1="0.028" x2="0.165" y2="1.1" gradientUnits="objectBoundingBox"><stop offset="0" stop-color="#d0a4ff"/><stop offset="1" stop-color="#fff" stop-opacity="0"/></linearGradient><linearGradient id="d" x1="0.988" y1="0.621" x2="0.029" y2="0.485" gradientUnits="objectBoundingBox"><stop offset="0" stop-color="#41eaba"/><stop offset="1" stop-color="#41eaba" stop-opacity="0"/></linearGradient></defs><g transform="translate(-1039 -1406)" clip-path="url(#a)"><path d="M167.42,502.9l83.8,209.024L259.7,519.661Z" transform="translate(1894.132 1375.589) rotate(105)" fill="rgba(206,241,211,0.15)" stroke="#cef1d3" stroke-width="1"/><path d="M670.908,200.41,506.43,93.98l221.159,33.147Z" transform="translate(1722.91 1133.574) rotate(105)" fill="rgba(44,195,255,0.15)" stroke="#2cc3ff" stroke-width="1"/><path d="M885.64,246.87l55.9-73.38,83.537,206.932Z" transform="translate(1820.466 940.796) rotate(105)" stroke="#2cc3ff" stroke-width="1" fill="url(#b)"/><path d="M842.626,843.921l-33.656-88.6L983.313,664.73Z" transform="translate(2073.996 1052.991) rotate(105)" stroke="#d0a4ff" stroke-width="1" fill="url(#c)"/><path d="M809.24,569.534,839.6,344.12l145.88,139.824Z" transform="translate(1901.346 1006.573) rotate(105)" stroke="#41eaba" stroke-width="1" fill="url(#d)"/><path d="M560.334,873.73l38.384,86.736L371.57,926.421Z" transform="translate(2123.442 1318.751) rotate(105)" fill="rgba(44,195,255,0.15)" stroke="#2cc3ff" stroke-width="1"/><path d="M385.73,288.246,432.356,92.63,602.368,202.647Z" transform="translate(1704.763 1198.392) rotate(105)" fill="rgba(0,0,0,0)" stroke="#41eaba" stroke-width="1"/><path d="M552.113,683.63,374.338,542.01,365.99,741.072Z" transform="translate(1943.964 1273.881) rotate(105)" fill="none" stroke="#41eaba" stroke-width="1"/><path d="M260.679,294.532l44.9-188.472L168.21,281.031Z" transform="translate(1680.603 1317.493) rotate(105)" fill="rgba(44,195,255,0.15)" stroke="#2cc3ff" stroke-width="1"/><path d="M566.867,570.375,384.96,431.657,601.124,346.08Z" transform="translate(1841.167 1235.386) rotate(105)" fill="none" stroke="#41eaba" stroke-width="1"/></g></svg>