<svg xmlns="http://www.w3.org/2000/svg" width="61.764" height="60"  fill="#8f00fc" xmlns:v="https://vecta.io/nano"><path d="M21.591 60h-2.568c-.487 0-.883-.395-.883-.882s.395-.882.883-.882h2.568c.487 0 .883.395.883.883a.88.88 0 0 1-.883.882zm36.643 0h-21.67c-.487 0-.883-.395-.883-.883a.88.88 0 0 1 .883-.882h21.67a1.77 1.77 0 0 0 1.249-.517A1.76 1.76 0 0 0 60 56.47V33.529c0-.468-.186-.917-.517-1.248s-.78-.517-1.248-.517H3.529c-.468 0-.917.186-1.248.517s-.517.78-.517 1.248V56.47c0 .975.79 1.765 1.765 1.765h9.318c.487 0 .883.395.883.883a.88.88 0 0 1-.883.882H3.529A3.53 3.53 0 0 1 0 56.47V33.529A3.53 3.53 0 0 1 3.529 30h54.705a3.53 3.53 0 0 1 3.529 3.529V56.47A3.53 3.53 0 0 1 58.234 60zm-27.846 0h-2.621c-.487 0-.883-.395-.883-.882s.395-.882.883-.882h2.621c.487 0 .883.395.883.883a.88.88 0 0 1-.883.882zm10.2-12.185H21.176a.88.88 0 0 1-.882-.883v-3.866c0-.487.395-.883.883-.883s.883.395.883.883v2.987h17.646v-2.987c0-.487.395-.883.883-.883a.88.88 0 0 1 .882.883v3.869a.88.88 0 0 1-.882.88z"/><path d="M49.852 31.756H11.911a.88.88 0 0 1-.882-.882V.882A.88.88 0 0 1 11.911 0h27.353a.88.88 0 0 1 .624.258l10.588 10.589a.88.88 0 0 1 .259.624v19.4a.88.88 0 0 1-.883.885zm-37.058-1.765H48.97V11.836L38.899 1.765h-26.1z"/><path d="M49.852 12.353H39.264a.88.88 0 0 1-.882-.882V.882c0-.487.395-.883.883-.883s.883.395.883.883v9.709h9.705c.487 0 .883.395.883.883s-.395.883-.883.883zM33.528 9.704H17.646c-.487 0-.883-.395-.883-.883s.395-.883.883-.883h15.882c.487 0 .882.395.882.883s-.395.883-.882.883zm8.824 7.494H17.646c-.487 0-.883-.395-.883-.883s.395-.883.883-.883h24.706c.487 0 .882.395.882.883s-.395.883-.882.883zm1.765 7.5H17.646c-.487 0-.883-.395-.883-.883s.395-.883.883-.883h26.47c.487 0 .883.395.883.883s-.395.883-.883.883z"/></svg>