<svg xmlns="http://www.w3.org/2000/svg" xmlns:xlink="http://www.w3.org/1999/xlink" width="56.549" height="60" xmlns:v="https://vecta.io/nano"><g fill="#8f00fc"><path d="M30.15 59.996h-2.544c-.306 0-.589-.163-.742-.428s-.153-.592 0-.857.436-.429.742-.428h2.545c.306 0 .589.163.742.428s.153.592 0 .857-.436.429-.742.428zm-17.024-.001H1.816A1.82 1.82 0 0 1 0 58.179V10.412a1.82 1.82 0 0 1 1.816-1.816h7.591a.86.86 0 0 1 .857.857.86.86 0 0 1-.857.857H1.816a.1.1 0 0 0-.1.1v47.769a.1.1 0 0 0 .1.1h11.31c.306 0 .589.163.742.428s.153.592 0 .857-.436.429-.742.428zm8.483.001h-2.485c-.306 0-.589-.163-.742-.428s-.153-.592 0-.857.436-.429.742-.428h2.485c.306 0 .589.163.742.428s.153.592 0 .857-.436.429-.742.428zm17.701-.001h-3.162c-.306 0-.589-.163-.742-.428s-.153-.592 0-.857.436-.429.742-.428h3.162a.1.1 0 0 0 .1-.1v-47.77a.1.1 0 0 0-.1-.1h-7.591a.86.86 0 0 1-.857-.857.86.86 0 0 1 .857-.857h7.591a1.82 1.82 0 0 1 1.816 1.816v47.765a1.82 1.82 0 0 1-1.816 1.816z"/><path d="M31.719 12.876H9.408c-.473 0-.857-.384-.857-.857v-5.1c0-.473.384-.857.857-.857h4.644c.24-3.418 3.083-6.068 6.509-6.068s6.269 2.65 6.509 6.068h4.649c.472.003.853.387.852.859v5.1c-.001.471-.381.852-.852.855zm-21.454-1.714h20.6V7.778h-4.638c-.473 0-.857-.384-.857-.857v-.4a4.81 4.81 0 1 0-9.622 0v.4c0 .473-.384.857-.857.857h-4.626z"/><use xlink:href="#B"/><use xlink:href="#C"/><use xlink:href="#C" y="8.998"/><use xlink:href="#B" y="26.996"/><path d="M7.815 25.973c-.227 0-.445-.09-.606-.251L5.36 23.873c-.335-.335-.335-.877 0-1.212s.877-.335 1.212 0l1.243 1.242 4.215-4.215a.86.86 0 0 1 1.214-.002.86.86 0 0 1 .002 1.214l-4.821 4.821c-.162.162-.381.252-.61.251zm0 9.295c-.227 0-.445-.09-.606-.251L5.36 33.168c-.298-.34-.28-.853.04-1.172s.833-.334 1.172-.035L7.815 33.2l4.215-4.215a.86.86 0 0 1 .829-.22c.296.08.526.311.605.608s-.007.612-.224.828l-4.821 4.821c-.161.159-.378.248-.604.247zm0 8.438a.85.85 0 0 1-.606-.251L5.36 41.606c-.335-.335-.335-.877 0-1.212s.877-.335 1.212 0l1.243 1.248 4.215-4.215a.86.86 0 0 1 1.214-.002.86.86 0 0 1 .002 1.214L8.425 43.46a.85.85 0 0 1-.606.247zm0 9.296a.85.85 0 0 1-.606-.251L5.36 50.903c-.335-.335-.335-.877 0-1.212s.877-.335 1.212 0l1.243 1.245 4.215-4.215a.86.86 0 0 1 1.213-.003.86.86 0 0 1 .003 1.213l-4.821 4.82a.85.85 0 0 1-.606.251zm47.877-2.366h-9.461a.86.86 0 0 1-.857-.857v-30.72a1.91 1.91 0 0 1 1.906-1.906h7.363a1.91 1.91 0 0 1 1.906 1.906v30.716a.86.86 0 0 1-.25.609c-.161.162-.379.252-.607.252zm-8.6-1.714h7.747V19.059c0-.106-.086-.192-.192-.192H47.28c-.051 0-.1.02-.136.056s-.056.085-.056.136z"/><path d="M50.961 60c-.323 0-.618-.182-.764-.47l-4.731-9.369c-.134-.266-.121-.582.035-.835a.86.86 0 0 1 .73-.408h9.461c.298 0 .574.154.73.408s.169.57.035.835l-4.731 9.366a.86.86 0 0 1-.765.47zm-3.345-9.373l3.342 6.611 3.345-6.611zm8.076-23.013h-9.461c-.306 0-.589-.163-.742-.428s-.153-.592 0-.857.436-.429.742-.428h9.461c.306 0 .589.163.742.428s.153.592 0 .857-.436.429-.742.428z"/><path d="M50.962 50.631c-.473 0-.857-.384-.857-.857V26.757c0-.473.384-.857.857-.857s.857.384.857.857v23.017c0 .473-.384.857-.857.857z"/></g><defs ><path id="B" d="M35.161 23.579H18.025c-.473 0-.857-.384-.857-.857s.384-.857.857-.857h17.136c.306 0 .589.163.742.428s.153.592 0 .857-.436.429-.742.428z"/><path id="C" d="M35.161 32.578H18.025c-.306 0-.589-.163-.742-.428s-.153-.592 0-.857.436-.429.742-.428h17.136c.306 0 .589.163.742.428s.153.592 0 .857-.436.429-.742.428z"/></defs></svg>