<svg xmlns="http://www.w3.org/2000/svg" xmlns:xlink="http://www.w3.org/1999/xlink" width="53.238" height="60" xmlns:v="https://vecta.io/nano"><g fill="#8f00fc"><path d="M26.62 42.934c-7.143 0-12.934-5.791-12.934-12.934s5.791-12.934 12.934-12.934S39.554 22.857 39.554 30 33.763 42.934 26.62 42.934zm0-24.154c-6.197 0-11.22 5.023-11.22 11.22s5.023 11.22 11.22 11.22S37.84 36.197 37.84 30s-5.023-11.22-11.22-11.22z"/><path d="M36.609 37.637c-.254 0-.495-.113-.658-.308a12.17 12.17 0 0 0-18.66 0c-.304.363-.844.411-1.208.108s-.411-.844-.108-1.207c2.638-3.149 6.536-4.969 10.645-4.969s8.006 1.819 10.645 4.969c.214.255.26.611.119.913s-.443.494-.776.494z"/><path d="M26.62 32.969a4.99 4.99 0 1 1 0-9.982 4.99 4.99 0 1 1 0 9.982zm0-8.268a3.28 3.28 0 0 0-3.277 3.277 3.28 3.28 0 0 0 3.277 3.277 3.28 3.28 0 0 0 3.277-3.277c0-.869-.345-1.703-.96-2.317s-1.448-.96-2.317-.96z"/><use xlink:href="#B"/><path d="M6.477 16.392c-.389.001-.729-.26-.83-.635s.064-.771.401-.965L23.566 4.679a.86.86 0 0 1 1.136.334c.229.397.104.903-.282 1.15L6.906 16.277a.85.85 0 0 1-.429.116zm17.514 39.049a.84.84 0 0 1-.429-.116L6.049 45.207a.86.86 0 0 1-.443-.745c-.002-.31.164-.597.433-.75s.601-.149.866.011l17.518 10.111a.86.86 0 0 1 .401.965c-.1.375-.441.636-.83.635zm5.249.008c-.389.001-.729-.26-.83-.635s.064-.771.401-.965l17.523-10.125c.266-.16.597-.165.866-.011a.86.86 0 0 1 .433.75c-.002.31-.171.595-.443.745L29.669 55.334a.86.86 0 0 1-.429.115z"/><use xlink:href="#B" x="-45.205"/><path d="M32.379 8.084a.85.85 0 0 1-.429-.115L28.825 6.16c-.41-.237-.551-.761-.314-1.171s.761-.551 1.171-.314l3.129 1.809a.86.86 0 0 1 .401.965c-.1.375-.441.636-.83.635zm14.384 8.305a.86.86 0 0 1-.429-.115l-4.423-2.554c-.41-.237-.551-.761-.314-1.171s.761-.551 1.171-.314l4.423 2.554a.86.86 0 0 1 .401.965c-.1.375-.441.636-.83.635zm-8.53-4.928a.85.85 0 0 1-.429-.113l-1.749-1c-.266-.152-.43-.435-.431-.741a.86.86 0 0 1 .427-.744c.265-.154.592-.155.857-.002l1.749 1a.86.86 0 0 1 .401.965c-.1.375-.441.636-.83.635z"/><use xlink:href="#C"/><path d="M26.62 18.781c-.227 0-.446-.09-.606-.251s-.251-.379-.251-.607V6.934c0-.306.163-.589.428-.742s.592-.153.857 0 .429.436.428.742v10.989c0 .227-.09.446-.251.607s-.379.251-.606.251z"/><use xlink:href="#C" y="52.208"/><path d="M26.62 53.924c-.227 0-.446-.09-.606-.251a.86.86 0 0 1-.251-.607V42.077c0-.306.163-.589.428-.742s.592-.153.857 0 .429.436.428.742v10.989a.86.86 0 0 1-.251.607c-.161.161-.379.251-.606.251zM3.895 21.037C2.259 21.034.799 20.009.241 18.471s-.096-3.261 1.158-4.313 3.031-1.208 4.448-.391S8.02 16.2 7.739 17.812c-.326 1.867-1.949 3.229-3.844 3.225zm-1.891-4.972a2.181 2.181 0 1 0 1.315-1.028 2.18 2.18 0 0 0-1.316 1.028z"/><path d="M16.109 24.909c-.148 0-.293-.038-.422-.111l-9.564-5.414c-.271-.148-.442-.431-.446-.741s.159-.597.426-.752a.86.86 0 0 1 .865.002l9.563 5.413c.336.193.5.587.401.962s-.437.636-.824.638zm33.225 21.844c-1.759-.006-3.296-1.19-3.75-2.89s.288-3.492 1.81-4.375 3.446-.635 4.696.604 1.513 3.161.645 4.69c-.695 1.223-1.994 1.976-3.4 1.971zm.01-6.074a2.18 2.18 0 1 0 1.071.282 2.18 2.18 0 0 0-1.071-.282z"/><path d="M46.693 42.22c-.148 0-.293-.038-.422-.111l-9.56-5.413c-.267-.151-.432-.432-.435-.738s.158-.591.422-.746a.86.86 0 0 1 .857-.008l9.564 5.414c.336.193.5.587.401.962s-.437.636-.824.638zm2.653-21.183c-1.764.003-3.31-1.181-3.767-2.885s.288-3.502 1.817-4.383 3.458-.624 4.703.626 1.494 3.181.607 4.706c-.696 1.197-1.976 1.934-3.36 1.936zm-.011-6.074a2.18 2.18 0 1 0 1.9 1.106 2.18 2.18 0 0 0-1.9-1.106z"/><path d="M37.131 24.909c-.387-.002-.725-.263-.824-.638a.86.86 0 0 1 .401-.962l9.563-5.413a.86.86 0 0 1 .865-.002c.268.155.43.443.426.752s-.174.592-.446.741l-9.563 5.41c-.129.073-.274.112-.422.112zM3.906 46.753a3.9 3.9 0 1 1 3.758-2.888c-.455 1.702-1.996 2.886-3.758 2.888zm-1.9-2.82a2.181 2.181 0 1 0 3.796-2.149 2.18 2.18 0 1 0-3.796 2.149z"/><path d="M6.547 42.22c-.387-.002-.725-.263-.824-.638s.066-.769.401-.962l9.564-5.414c.267-.151.593-.148.857.008s.425.44.422.746-.169.588-.435.738l-9.563 5.41c-.129.073-.274.111-.422.111z"/></g><defs ><path id="B" d="M49.222 40.687c-.473 0-.857-.384-.857-.857V20.171c0-.473.384-.857.857-.857s.857.384.857.857V39.83c0 .227-.09.445-.251.606s-.379.251-.606.251z"/><path id="C" d="M26.62 7.791a3.9 3.9 0 0 1-2.764-6.656 3.9 3.9 0 0 1 6.659 2.756 3.9 3.9 0 0 1-3.895 3.9zm0-6.076a2.18 2.18 0 0 0-1.542 3.723 2.18 2.18 0 0 0 3.723-1.542 2.18 2.18 0 0 0-2.181-2.181z"/></defs></svg>