<svg xmlns="http://www.w3.org/2000/svg" width="46.269" height="60"  fill="#8f00fc" xmlns:v="https://vecta.io/nano"><path d="M45.411 60H.857A.86.86 0 0 1 0 59.143V47.494a13.11 13.11 0 0 1 13.09-13.097h.129c.158 0 .313.044.448.127a18.3 18.3 0 0 0 9.469 2.513 18.47 18.47 0 0 0 9.489-2.516c.134-.081.289-.124.446-.124h.111l.639.021a.86.86 0 0 1 .74.932.86.86 0 0 1-.903.775 3.65 3.65 0 0 0-.351-.014 20.29 20.29 0 0 1-10.171 2.64 20.11 20.11 0 0 1-10.155-2.64c-6.239.069-11.262 5.144-11.267 11.383v10.792h42.84V47.494a11.11 11.11 0 0 0-.35-2.785.86.86 0 0 1 1.096-1.038.86.86 0 0 1 .577.663c.261 1.033.392 2.095.391 3.16v11.649c0 .227-.09.445-.251.606s-.379.251-.606.251zM41.64 39.515a.86.86 0 0 1-.593-.237c-.557-.539-1.169-1.018-1.827-1.427-.381-.257-.491-.769-.249-1.16a.86.86 0 0 1 1.149-.297c.761.472 1.47 1.023 2.115 1.645.251.242.329.612.199.936s-.443.536-.791.537zm-16.812-7.822H21.44c-.627-.003-1.158-.463-1.252-1.083l-.213-1.485a13.37 13.37 0 0 1-4-1.651l-1.2.894a1.27 1.27 0 0 1-1.653-.12l-2.393-2.395c-.441-.447-.492-1.148-.119-1.653l.895-1.2a13.37 13.37 0 0 1-1.652-3.993l-1.478-.216c-.62-.094-1.08-.626-1.083-1.253v-3.385c.003-.627.463-1.159 1.083-1.253l1.485-.216a13.37 13.37 0 0 1 1.652-3.993l-.894-1.2c-.373-.505-.324-1.206.117-1.653l2.4-2.4a1.27 1.27 0 0 1 1.653-.118l1.2.893a13.35 13.35 0 0 1 3.987-1.642l.215-1.485C20.282.465 20.813.005 21.44 0h3.387c.627.003 1.158.463 1.252 1.083l.215 1.488a13.36 13.36 0 0 1 4 1.651l1.2-.894a1.27 1.27 0 0 1 1.653.12l2.4 2.395c.443.448.492 1.152.116 1.657l-.895 1.2a13.37 13.37 0 0 1 1.645 3.99l1.485.216c.616.096 1.072.625 1.077 1.249v3.387c-.003.627-.463 1.159-1.083 1.253l-1.485.216A13.37 13.37 0 0 1 34.761 23l.894 1.2c.373.505.324 1.206-.117 1.653l-2.4 2.4c-.446.442-1.148.493-1.653.119l-1.2-.894a13.37 13.37 0 0 1-4 1.651l-.21 1.487c-.096.616-.624 1.072-1.247 1.077zm-3-1.714h2.609l.249-1.693a.86.86 0 0 1 .686-.719 11.69 11.69 0 0 0 4.465-1.846.86.86 0 0 1 1 .021l1.365 1.02 1.847-1.848-1.019-1.365a.86.86 0 0 1-.021-1 11.68 11.68 0 0 0 1.85-4.467c.067-.36.356-.638.719-.691l1.692-.246v-2.604l-1.695-.246c-.363-.053-.652-.331-.719-.691a11.68 11.68 0 0 0-1.845-4.464.86.86 0 0 1 .021-1l1.019-1.365-1.848-1.845-1.366 1.02a.86.86 0 0 1-1 .021 11.69 11.69 0 0 0-4.462-1.846.86.86 0 0 1-.686-.719l-.252-1.692h-2.608l-.248 1.692a.86.86 0 0 1-.686.719 11.69 11.69 0 0 0-4.465 1.846.86.86 0 0 1-1-.021l-1.365-1.02-1.847 1.848 1.019 1.365a.86.86 0 0 1 .021 1 11.68 11.68 0 0 0-1.845 4.457c-.067.36-.356.638-.719.691l-1.692.246v2.612l1.692.246c.363.053.652.331.719.691a11.68 11.68 0 0 0 1.845 4.464.86.86 0 0 1-.021 1l-1.019 1.365 1.847 1.848 1.365-1.02a.86.86 0 0 1 1-.021 11.69 11.69 0 0 0 4.465 1.846.86.86 0 0 1 .686.719zm1.306-5.578c-4.724 0-8.554-3.83-8.554-8.554s3.83-8.554 8.554-8.554 8.554 3.83 8.554 8.554c0 2.269-.901 4.444-2.505 6.049a8.55 8.55 0 0 1-6.049 2.505zm0-15.394a6.84 6.84 0 1 0 4.837 2.003 6.84 6.84 0 0 0-4.837-2.004z"/><path d="M35.991 60H10.277c-.473 0-.857-.384-.857-.857v-6c0-.473.384-.857.857-.857s.857.384.857.857v5.143h24v-5.143c0-.473.384-.857.857-.857s.857.384.857.857v6c0 .473-.384.857-.857.857z"/></svg>