<svg xmlns="http://www.w3.org/2000/svg" xmlns:xlink="http://www.w3.org/1999/xlink" width="79.118" height="100" xmlns:v="https://vecta.io/nano"><path d="M73.233 33.572c-1.621-1.615-3.521-2.923-5.609-3.86A24.3 24.3 0 0 1 55.43 17.297a28.94 28.94 0 0 0-26.474-17.3C13.418.023.659 12.288.021 27.813A28.82 28.82 0 0 0 5.269 45.58a24.96 24.96 0 0 1 3.324 21.815c-3.274 10.519-2.133 20.488 4.1 26.717 10.916 10.916 33.318 6.212 50.036-10.507s21.423-39.12 10.507-50.036z" fill="#fff"/><circle cx="10.445" cy="21.137" r="6.83" fill="#00008a" opacity=".1"/><path d="M72.872 39.816l-15.92-5.493a1.16 1.16 0 0 0-1.473.717l-8.574 24.844h-31.3c-1.079 0-1.953.874-1.953 1.953V70.3c0 1.079.874 1.953 1.953 1.953h1.425l1.633 7.058-4.835 4.835c-.571.571-.892 1.345-.892 2.153a3.04 3.04 0 0 0 .892 2.152 3.05 3.05 0 0 0 2.153.892c.808 0 1.582-.321 2.153-.892l2.147-2.147 2.266 9.795c.205.884.992 1.51 1.9 1.512h36.117c.908-.002 1.695-.628 1.9-1.512l2.266-9.795 2.147 2.147c.571.571 1.345.892 2.152.892s1.582-.321 2.153-.892.892-1.345.892-2.152-.321-1.582-.892-2.153l-4.829-4.83 1.633-7.058h1.425c1.079 0 1.953-.874 1.953-1.953v-8.463c0-1.079-.874-1.953-1.953-1.953H67.17l6.417-18.594a1.16 1.16 0 0 0-.717-1.473zm-17.9 20.067l4.357-12.624a1.95 1.95 0 0 1 3.689 1.273l-3.917 11.351zM17.616 38.247l2.019-4 5.991 18.229a.9.9 0 0 0 1.132.572l19.968-6.562a.9.9 0 0 0 .572-1.132l-5.991-18.229 4 2.019a.9.9 0 0 0 1.2-.4l2.831-5.6 6.964 3.167c.364.165.792.004.958-.359l3.683-8.1.65 1.733c.067.18.203.325.378.405a.72.72 0 0 0 .553.019l2.949-1.105c.374-.14.564-.557.424-.931l-2.157-5.756a.72.72 0 0 0-.378-.4l-1.8-.82a.6.6 0 0 0-.643.092 2.9 2.9 0 0 1-4.8-2.181.6.6 0 0 0-.353-.545l-1.849-.841a.6.6 0 0 0-.462-.016l-5.914 2.216a.6.6 0 0 0-.354.779l1.188 3.171a.6.6 0 0 0 .779.354l1.844-.691-2.936 6.455-10.66-5.387a.9.9 0 0 0-.684-.052l-4.4 1.445c-.338.108-.579.408-.612.762a6.06 6.06 0 0 1-10.616 3.489c-.236-.266-.608-.365-.945-.251l-4.4 1.445a.9.9 0 0 0-.52.447L9.048 33.92a.9.9 0 0 0 .4 1.2l6.963 3.519a.9.9 0 0 0 1.2-.4z" opacity=".1" fill="#00008a"/><path d="M65.473 14.809l-2.949 1.105c-.18.067-.379.06-.553-.019s-.31-.225-.378-.405l-.65-1.733-3.683 8.1a.72.72 0 0 1-.405.378c-.18.067-.379.06-.553-.019l-8.737-3.973a.6.6 0 0 1-.3-.8l3.732-8.207-1.844.691a.6.6 0 0 1-.779-.354l-1.189-3.171a.6.6 0 0 1 .354-.779l5.913-2.216a.6.6 0 0 1 .463.016l1.849.841a.6.6 0 0 1 .353.545 2.9 2.9 0 0 0 4.8 2.181.6.6 0 0 1 .643-.092l1.8.82a.72.72 0 0 1 .378.4l2.157 5.756c.068.18.061.379-.018.554a.72.72 0 0 1-.405.378zm-9.994 16.129L45.65 59.414a1.16 1.16 0 0 0 .717 1.473l5.02 1.732a1.16 1.16 0 0 0 1.473-.717l6.47-18.748a1.95 1.95 0 0 1 3.689 1.273l-6.47 18.748a1.16 1.16 0 0 0 .717 1.473l5.02 1.732a1.16 1.16 0 0 0 1.473-.717l9.828-28.479a1.16 1.16 0 0 0-.717-1.473l-15.919-5.494a1.16 1.16 0 0 0-1.473.718z" fill="#fff"/><path d="M73.589 37.187l-.693 2.01-18.112-6.25.693-2.008a1.16 1.16 0 0 1 1.473-.719l15.92 5.494a1.16 1.16 0 0 1 .717 1.473z" fill="#8f00fc"/><path d="M46.407 57.227l-.756 2.191a1.16 1.16 0 0 0 .717 1.473l5.02 1.732a1.16 1.16 0 0 0 1.473-.717l.756-2.191zm10.899 3.763l-.756 2.191a1.16 1.16 0 0 0 .717 1.473l5.019 1.732a1.16 1.16 0 0 0 1.473-.717l.756-2.19z" fill="#d9d9ff"/><g fill="#00008a"><path d="M68.555 37.699a5.66 5.66 0 0 0 1.122 5.428l1.332 1.533 1.886-5.463zm-9.429-3.253c-.143.381-.326.746-.547 1.088a5.66 5.66 0 0 1-3.686 2.492l-1.992.385 1.884-5.463z"/><path d="M60.264 35.229l-1.041-.359a.23.23 0 0 1-.133-.118c-.027-.056-.031-.119-.011-.177l1.116-3.234 1.479.51-1.116 3.234a.23.23 0 0 1-.294.144zm7.951 2.744l-1.041-.359c-.121-.042-.185-.174-.143-.295l1.116-3.234 1.479.51-1.116 3.234a.23.23 0 0 1-.118.133c-.056.027-.119.031-.177.011z"/></g><path d="M45.302 25.046l-4-2.018 5.99 18.229a.9.9 0 0 1-.572 1.131l-19.967 6.563a.9.9 0 0 1-1.133-.572L19.63 30.15l-2.02 4a.9.9 0 0 1-1.205.4l-6.963-3.52a.9.9 0 0 1-.4-1.2l6.18-12.231a.9.9 0 0 1 .522-.447l4.397-1.442a.88.88 0 0 1 .943.25 6.06 6.06 0 0 0 6.467 1.781c2.317-.762 3.953-2.838 4.15-5.27.032-.354.273-.655.611-.764l4.4-1.445c.226-.074.472-.055.684.053l12.231 6.18c.44.223.617.76.395 1.2l-3.518 6.965a.9.9 0 0 1-1.205.395z" fill="#fff"/><path d="M27.007 30.864a2.31 2.31 0 0 1-2.192-1.586l-1-3.054a2.29 2.29 0 0 1 1.47-2.909l.989-.325a2.31 2.31 0 0 1 2.91 1.47l1 3.054a2.31 2.31 0 0 1-1.47 2.91l-.989.325a2.3 2.3 0 0 1-.718.115zm-.016-6.036c-.037 0-.075.006-.11.018l-.989.325a.35.35 0 0 0-.22.445l1 3.054c.061.184.259.285.444.225l.989-.325c.184-.061.285-.26.224-.444l-1-3.054a.35.35 0 0 0-.335-.238zm5.732 4.137a.98.98 0 0 1-.774-.381c-.253-.328-.271-.781-.045-1.128a12.18 12.18 0 0 0 1.745-3.7.88.88 0 0 0-.3-.76.57.57 0 0 0-.56-.087c-.353.116-.545.496-.429.849a.98.98 0 0 1-.623 1.233c-.246.081-.514.061-.746-.056a.97.97 0 0 1-.487-.567 2.63 2.63 0 0 1 1.674-3.314 2.52 2.52 0 0 1 2.374.4c.735.588 1.127 1.505 1.045 2.443a7.33 7.33 0 0 1-.78 2.376l.962-.316a.98.98 0 0 1 1.233.623c.081.246.061.514-.056.746a.97.97 0 0 1-.567.487l-3.36 1.1a.97.97 0 0 1-.306.052z" fill="#00008a"/><g fill="#fff"><path d="M68.344 66.617l-5.873 25.381c-.205.884-.992 1.51-1.9 1.512h-36.12c-.908-.002-1.695-.628-1.9-1.512l-5.873-25.381z"/><path d="M69.413 68.152H15.606c-1.079 0-1.953-.874-1.953-1.953V57.74c0-1.079.874-1.953 1.953-1.953h53.812c1.079 0 1.953.874 1.953 1.953v8.463c-.001.518-.208 1.015-.575 1.38s-.865.57-1.383.569z"/></g><g fill="#00008a"><path d="M29.062 75.083v9.961c-.017.527-.449.946-.976.946s-.96-.419-.976-.946v-9.961c-.011-.356.172-.691.479-.872s.688-.182.995 0 .49.516.479.872z"/><use xlink:href="#B"/><path d="M42.508 74.107c.54 0 .977.437.977.977v9.965c-.017.527-.449.946-.976.946s-.96-.419-.976-.946v-9.961c0-.259.103-.508.286-.691s.432-.286.691-.286"/><use xlink:href="#B" x="14.426"/><path d="M57.906 75.083v9.961c-.017.527-.449.946-.976.946s-.96-.419-.976-.946v-9.961c.017-.527.449-.946.976-.946s.96.419.976.946z"/></g><g fill="#8f00fc"><path d="M71.19 84.35c-.571.571-1.345.892-2.153.892s-1.582-.321-2.153-.892l-19.73-19.73c-.769-.769-1.069-1.89-.788-2.94s1.102-1.871 2.153-2.153a3.04 3.04 0 0 1 2.94.788l19.73 19.73c.571.571.892 1.345.892 2.153s-.321 1.582-.892 2.153zM37.861 60.314c-.571-.571-1.345-.892-2.153-.892s-1.582.321-2.153.892l-19.73 19.728c-1.189 1.189-1.189 3.116 0 4.305s3.116 1.189 4.305 0l19.73-19.73c.571-.571.892-1.345.892-2.152s-.321-1.582-.892-2.153z"/><circle cx="10.445" cy="17.036" r="6.83"/></g><g fill="#00008a"><path d="M10.45 20.307c-.54 0-.977-.437-.977-.977v-4.584c0-.54.437-.977.977-.977s.977.437.977.977v4.588c-.002.538-.439.973-.977.973z"/><path d="M12.743 18.013H8.155c-.54 0-.977-.437-.977-.977s.437-.977.977-.977h4.588c.54 0 .977.437.977.977s-.437.977-.977.977z"/></g><circle cx="6.828" cy="6.828" r="6.828" transform="matrix(.34 -.94 .94 .34 49.573 30.39)" fill="#8f00fc"/><g fill="#00008a"><path d="M68.404 49.218c-.176.509.092 1.064.6 1.242s1.064-.092 1.242-.6l4.262-12.35a2.12 2.12 0 0 0-1.323-2.715l-9.158-3.161c1.367-1.445 2.128-3.359 2.127-5.348a7.82 7.82 0 0 0-6.353-7.669l1.084-2.383a1.69 1.69 0 0 0 1.976.598l2.949-1.105a1.7 1.7 0 0 0 1-2.189l-2.158-5.759a1.69 1.69 0 0 0-.888-.951l-1.8-.82c-.56-.254-1.217-.16-1.684.24-.57.488-1.37.602-2.054.293S57.104 5.55 57.097 4.8c-.006-.615-.367-1.171-.926-1.427l-1.849-.841a1.57 1.57 0 0 0-1.21-.041l-5.913 2.216a1.57 1.57 0 0 0-.884.826 1.57 1.57 0 0 0-.041 1.21l1.185 3.175a1.57 1.57 0 0 0 .826.885c.272.124.573.169.869.128l-1.561 3.432-9.752-4.928a1.86 1.86 0 0 0-1.43-.108l-4.4 1.445c-.713.23-1.218.866-1.28 1.612-.162 2.041-1.535 3.785-3.481 4.421-1.944.642-4.084.053-5.425-1.494-.493-.564-1.277-.776-1.987-.538l-1.771.582a7.82 7.82 0 0 0-7.622-6.121 7.82 7.82 0 0 0-7.807 7.807 7.82 7.82 0 0 0 7.807 7.807h.021l-2.291 4.534c-.465.924-.095 2.049.827 2.517l6.963 3.519c.923.466 2.05.096 2.517-.827l.956-1.892 5.255 15.989c.254.769.972 1.288 1.781 1.288.198 0 .395-.032.583-.094l19.968-6.562c.982-.324 1.517-1.381 1.195-2.364l-5.255-15.989 1.892.956c.923.466 2.05.096 2.517-.827l2.408-4.765 2.45 1.114c-1.097 1.376-1.693 3.084-1.692 4.844a7.8 7.8 0 0 0 3.308 6.374l-7.644 22.148H15.602c-1.618.002-2.928 1.312-2.93 2.93v8.463c.002 1.618 1.312 2.928 2.93 2.93h.65l1.336 5.773-4.452 4.452c-1.568 1.571-1.568 4.115 0 5.686a4.01 4.01 0 0 0 5.686 0l.9-.9 1.87 8.079c.303 1.331 1.489 2.274 2.854 2.269h36.119c1.365.005 2.551-.938 2.854-2.269l1.87-8.08.9.9a4.01 4.01 0 0 0 5.686 0c1.567-1.571 1.567-4.115 0-5.686l-4.452-4.452 1.336-5.773h.65c1.618-.002 2.928-1.312 2.93-2.93V57.74c-.002-1.618-1.312-2.928-2.93-2.93h-8.941l3.47-10.056a2.91 2.91 0 0 0-1.812-3.723 2.91 2.91 0 0 0-3.723 1.812l-4.13 11.966h-6l7.323-21.218c.88.332 1.813.502 2.754.5 1.352.001 2.681-.352 3.855-1.023l10.346 3.57c.044.016.08.049.1.092s.024.094.008.139zM18.252 69.129h5.1l-4.146 4.146zm-.815 14.531a2.07 2.07 0 0 1-2.924 0 2.07 2.07 0 0 1 0-2.924l19.739-19.731a2.06 2.06 0 0 1 1.462-.6 2.06 2.06 0 0 1 1.462.6 2.07 2.07 0 0 1 0 2.924zm53.059 0a2.07 2.07 0 0 1-2.924 0L47.841 63.93a2.07 2.07 0 0 1 0-2.924c.387-.389.913-.607 1.462-.605s1.075.217 1.462.606l19.731 19.731a2.07 2.07 0 0 1 0 2.924zm-4.7-10.385l-4.144-4.146h5.1zm4.59-15.538V66.2a.98.98 0 0 1-.977.977h-9.707l-7.552-7.552c-1.571-1.568-4.115-1.568-5.686 0s-1.568 4.115 0 5.686l1.865 1.865h-7.561c-.54 0-.977.437-.977.977s.437.977.977.977h9.514l13.381 13.381-2.145 9.267a.97.97 0 0 1-.952.757H24.452a.97.97 0 0 1-.951-.756l-2.145-9.267 17.2-17.2c1.567-1.571 1.567-4.115 0-5.686s-4.115-1.567-5.686 0l-7.552 7.552h-9.716a.98.98 0 0 1-.977-.977v-8.463a.98.98 0 0 1 .977-.977h53.812c.539.001.975.437.976.976zm-10.134-14.26a.97.97 0 0 1 1.245-.604.97.97 0 0 1 .558.495c.114.232.13.501.045.745l-3.69 10.693h-2.062zM4.593 17.037c.004-3.231 2.623-5.85 5.854-5.854 3.231.004 5.85 2.623 5.854 5.854-.004 3.231-2.623 5.85-5.854 5.854a5.86 5.86 0 0 1-5.851-5.854zm41.075 7.1l-3.925-1.983c-.352-.178-.778-.127-1.077.131s-.414.67-.291 1.045l5.966 18.153-19.816 6.513-5.966-18.153c-.123-.375-.46-.639-.854-.669h-.074c-.368 0-.705.208-.871.536l-1.983 3.925-6.821-3.446 2.892-5.722a7.82 7.82 0 0 0 5.4-7.116l2.152-.707a7.02 7.02 0 0 0 12.274-4.034l4.314-1.418 12.128 6.128zm5.333-7.441a1.86 1.86 0 0 0-.935-1.087l-.732-.37 2.547-5.6c.164-.36.094-.782-.175-1.071s-.684-.387-1.054-.25l-1.5.561-.927-2.475 5.427-2.03 1.5.682c.102 1.42.97 2.671 2.264 3.263a3.89 3.89 0 0 0 3.948-.438l1.5.682 2.032 5.421-2.475.928-.561-1.5c-.139-.37-.486-.619-.881-.633a.98.98 0 0 0-.922.572l-2.343 5.152a7.76 7.76 0 0 0-3.96 1.477l-3.083-1.4.229-.453a1.86 1.86 0 0 0 .105-1.429zm1.494 9.586c.004-3.231 2.623-5.85 5.854-5.854a5.86 5.86 0 0 1 5.854 5.854 5.86 5.86 0 0 1-5.854 5.854 5.86 5.86 0 0 1-5.85-5.852z"/><use xlink:href="#C"/><use xlink:href="#C" x="-14.281"/><path d="M58.353 29.555c-.54 0-.977-.437-.977-.977V23.99c0-.54.437-.977.977-.977s.977.437.977.977v4.588c0 .54-.437.977-.977.977z"/><path d="M60.646 27.26h-4.588c-.54 0-.977-.437-.977-.977s.437-.977.977-.977h4.588c.54 0 .977.437.977.977s-.437.977-.977.977z"/></g><path d="M15.089 45.26a.98.98 0 0 1-.691-.286c-.183-.183-.286-.431-.286-.691a.98.98 0 0 1 .286-.691l1.953-1.953c.381-.381 1-.381 1.381 0 .183.183.286.431.286.691a.98.98 0 0 1-.286.691l-1.953 1.953c-.183.183-.431.286-.69.286zm58.456 31.384c-.395.001-.752-.237-.903-.602s-.068-.786.212-1.065l1.953-1.953a.98.98 0 0 1 .955-.278c.345.088.615.358.703.703a.98.98 0 0 1-.278.955l-1.953 1.953c-.183.183-.431.286-.69.286zM39.97 5.32a.98.98 0 0 1-.691-.286l-1.262-1.263-1.263 1.263c-.381.381-1 .381-1.381 0-.183-.183-.286-.431-.286-.69s.103-.507.286-.69L37.326 1.7c.381-.381 1-.381 1.381 0l1.953 1.953c.183.183.286.431.286.691a.98.98 0 0 1-.286.691.97.97 0 0 1-.691.286zm34.552 24.602a.98.98 0 0 1-.691-.286l-1.262-1.262-1.263 1.262c-.381.381-1 .381-1.381 0-.183-.183-.286-.431-.286-.691a.98.98 0 0 1 .286-.691l1.953-1.953c.381-.381 1-.381 1.381 0l1.953 1.953c.183.183.286.431.286.691a.98.98 0 0 1-.286.691.97.97 0 0 1-.69.286zM10.053 73.061a.98.98 0 0 1-.691-.286L8.1 71.512l-1.149 1.149a.98.98 0 0 1-.955.278c-.345-.088-.615-.358-.703-.703a.98.98 0 0 1 .278-.955l1.84-1.84c.381-.381 1-.381 1.381 0l1.953 1.953c.28.279.364.699.213 1.064s-.507.603-.903.603z" fill="#8f00fc"/><defs ><path id="B" d="M35.297 74.107c.54 0 .977.437.977.977v9.965c-.017.527-.449.946-.976.946s-.96-.419-.976-.946v-9.961c0-.54.437-.977.977-.977"/><path id="C" d="M49.649 61.827c-.54 0-.977.437-.977.977v.022c-.011.356.172.691.479.872s.688.182.995 0 .49-.516.479-.872v-.022c0-.539-.437-.976-.976-.977z"/></defs></svg>