<svg xmlns="http://www.w3.org/2000/svg" xmlns:xlink="http://www.w3.org/1999/xlink" width="111.189" height="100.001" xmlns:v="https://vecta.io/nano"><path d="M101.034 30.434a29.15 29.15 0 0 1-6.345-13.184 20.26 20.26 0 0 0-5.417-10.48C76.509-5.994 47.519 2.302 24.522 25.3S-6.771 77.287 5.992 90.05c6.067 6.067 15.8 7.374 26.813 4.607 6.407-1.575 13.156-.961 19.174 1.744 5.182 2.298 10.776 3.523 16.445 3.6a42.14 42.14 0 0 0 32.61-69.567z" fill="#fff"/><path d="M89.45 34.75h.127-39.928c-1.728 0-3.385.686-4.607 1.908s-1.908 2.879-1.908 4.607v13.987a13.02 13.02 0 1 0 0 14.914v12.258h-11.96c-.288 0-.564.114-.768.318s-.318.48-.318.768v9.669c0 1.728.686 3.385 1.908 4.607s2.879 1.908 4.607 1.908h39.944a6.52 6.52 0 0 0 6.515-6.515V47.224h11.7c.288 0 .564-.114.768-.318s.318-.48.318-.768v-4.875c-.001-3.553-2.848-6.45-6.4-6.512zm-39.407-5.084h21.849a1.08 1.08 0 0 0 .783-.332 1.09 1.09 0 0 0 .303-.795A24.05 24.05 0 0 0 50.084 5.648c-.295-.012-.582.098-.795.303a1.08 1.08 0 0 0-.332.783v21.847c0 .288.114.564.318.768s.48.318.768.318z" opacity=".1" fill="#00008a"/><g fill="#fff"><path d="M95.852 41.576v-4.875c0-1.728-.686-3.385-1.908-4.607s-2.879-1.908-4.607-1.908H78.161v12.476h16.6c.289.001.566-.113.771-.316s.32-.481.32-.77z"/><path d="M89.577 30.186c-1.728 0-3.385.686-4.607 1.908s-1.908 2.879-1.908 4.607v51.914a6.52 6.52 0 0 1-6.515 6.515H43.134V36.701c0-1.728.686-3.385 1.908-4.607s2.879-1.908 4.607-1.908z"/></g><g fill="#8f00fc"><path d="M72.17 46.357h-9.162c-.288 0-.564-.114-.768-.318s-.318-.48-.318-.768v-9.162c0-.288.114-.564.318-.768s.48-.318.768-.318h9.162c.288 0 .564.114.768.318s.318.48.318.768v9.162c0 .288-.114.564-.318.768s-.48.318-.768.318z"/><circle cx="69.16" cy="78.954" r="7.929"/></g><path d="M70.016 88.615v-9.669c0-.288-.114-.564-.318-.768s-.48-.318-.768-.318H31.174c-.288 0-.564.114-.768.318s-.318.48-.318.768v9.669c0 1.728.686 3.385 1.908 4.607s2.879 1.908 4.607 1.908h39.928c-1.728 0-3.385-.686-4.607-1.908s-1.908-2.879-1.908-4.607z" fill="#fff"/><g fill="#00008a"><path d="M68.061 68.732H49.71c-.6 0-1.086-.486-1.086-1.086s.486-1.086 1.086-1.086h18.351c.6 0 1.086.486 1.086 1.086s-.486 1.086-1.086 1.086zm-14.335-5.879h-4.018c-.6 0-1.086-.486-1.086-1.086s.486-1.086 1.086-1.086h4.018c.6 0 1.086.486 1.086 1.086s-.486 1.086-1.086 1.086zm22.151 10.249H49.708c-.6 0-1.086-.486-1.086-1.086s.486-1.086 1.086-1.086h26.169c.6 0 1.086.486 1.086 1.086s-.486 1.086-1.086 1.086zm-2.876-26.153a3.61 3.61 0 1 1 3.608-3.608 3.61 3.61 0 0 1-3.608 3.608zm0-5.044c-.581 0-1.104.35-1.327.886s-.099 1.154.311 1.565 1.028.534 1.565.311.886-.746.886-1.327A1.44 1.44 0 0 0 73 41.901z"/><path d="M75.523 49.466c-.288 0-.564-.114-.768-.318s-.318-.48-.318-.768c0-.793-.643-1.436-1.436-1.436s-1.436.643-1.436 1.436c0 .6-.486 1.086-1.086 1.086s-1.086-.486-1.086-1.086a3.61 3.61 0 0 1 3.608-3.608 3.61 3.61 0 0 1 3.608 3.608c0 .6-.486 1.086-1.086 1.086z"/></g><path d="M66.694 34.098c.295-.001.578.119.783.332s.314.5.303.795a24.05 24.05 0 0 1-48.063-.75 24.05 24.05 0 0 1 22.915-24.396c.295-.012.582.098.795.303s.333.488.332.783v22.934h22.935z" fill="#fff"/><g fill="#8f00fc"><path d="M71.892 25.106H50.043c-.288 0-.564-.114-.768-.318s-.318-.48-.318-.768V2.173c-.001-.295.119-.578.332-.783s.5-.314.795-.303a24.05 24.05 0 0 1 22.893 22.891c.012.295-.097.583-.302.796s-.488.333-.784.332z"/><circle cx="32.457" cy="58.142" r="13.015"/></g><path d="M89.656 29.109c-.027 0-.053-.008-.081-.008H49.647a7.56 7.56 0 0 0-4.8 1.716V11.166a2.17 2.17 0 0 0-2.263-2.171 25.12 25.12 0 0 0-19.8 38.918c-5.622 5.333-5.884 14.204-.586 19.859s14.167 5.973 19.855.711v9.377c-.001.599.483 1.086 1.082 1.088h25.8v9.669a7.58 7.58 0 0 0 2.286 5.429H36.607c-2.997-.003-5.426-2.432-5.429-5.429v-9.669h4.576c.6 0 1.086-.486 1.086-1.086s-.486-1.086-1.086-1.086h-4.576c-1.199.001-2.171.973-2.172 2.172v9.669a7.61 7.61 0 0 0 7.6 7.6h39.943a7.61 7.61 0 0 0 7.6-7.6V50.048c0-.6-.486-1.086-1.086-1.086s-1.086.486-1.086 1.086v38.567c-.003 2.997-2.432 5.426-5.429 5.429h-.015c-2.997-.003-5.426-2.432-5.429-5.429v-9.667c-.001-1.199-.973-2.171-2.172-2.172H44.22V65.93a14.01 14.01 0 0 0 2.317-6.853 25.08 25.08 0 0 0 22.329-23.8 2.17 2.17 0 0 0-2.171-2.263H45.673a5.41 5.41 0 0 1 3.976-1.741h34.614a7.58 7.58 0 0 0-2.286 5.429v5.964c0 .288.114.564.318.768s.48.318.768.318h11.704c1.199-.001 2.171-.973 2.172-2.172v-4.879a7.61 7.61 0 0 0-7.281-7.593zM32.467 70.077a11.93 11.93 0 1 1 11.931-11.929 11.95 11.95 0 0 1-11.931 11.929zm34.228-34.9c-.505 11.204-9.047 20.396-20.184 21.72a14.09 14.09 0 0 0-22.036-10.362 22.94 22.94 0 0 1 18.2-35.368v22.932c0 .288.114.564.318.768s.48.318.768.318h22.935zm28.07 6.4H84.146v-4.875a5.31 5.31 0 0 1 8.001-4.704 5.31 5.31 0 0 1 2.618 4.704zM47.299 86.474l1.4-1.4 1.4 1.4a1.09 1.09 0 0 0 1.52-.015c.418-.417.425-1.093.016-1.52l-2.172-2.172c-.204-.204-.48-.318-.768-.318s-.564.114-.768.318l-2.172 2.172c-.409.427-.402 1.102.016 1.52s1.093.425 1.52.015zm2.745-60.282h21.849c.594-.001 1.163-.245 1.574-.674a2.17 2.17 0 0 0 .6-1.59 25.05 25.05 0 0 0-7.334-16.593A25.06 25.06 0 0 0 50.139.002a2.18 2.18 0 0 0-1.589.6 2.19 2.19 0 0 0-.674 1.575v21.847c.001 1.199.973 2.171 2.172 2.172zm15.15-17.32a22.88 22.88 0 0 1 6.7 15.148H50.043l-.008-21.848a22.89 22.89 0 0 1 15.158 6.695z" fill="#00008a"/><circle cx="32.467" cy="58.145" r="9.204" fill="#fff"/><g fill="#00008a"><path d="M33.727 63.132h-3.474c-.6 0-1.086-.486-1.086-1.086s.486-1.086 1.086-1.086h3.474c.309 0 .595-.165.749-.432s.155-.597 0-.865-.44-.433-.749-.432h-2.52c-1.098.02-2.121-.554-2.676-1.502s-.555-2.121 0-3.069 1.578-1.522 2.676-1.502h3.474c.6 0 1.086.486 1.086 1.086s-.486 1.086-1.086 1.086h-3.474c-.309 0-.595.165-.749.432s-.155.597 0 .865.44.433.749.432h2.52c1.098-.02 2.121.554 2.676 1.502s.555 2.121 0 3.069-1.578 1.522-2.676 1.502z"/><path d="M32.468 64.585c-.288 0-.564-.114-.768-.318s-.318-.48-.318-.768V52.791c0-.6.486-1.086 1.086-1.086s1.086.486 1.086 1.086v10.708c0 .288-.114.564-.318.768s-.48.318-.768.318zm6.243-29.543H26.224c-.6 0-1.086-.486-1.086-1.086s.486-1.086 1.086-1.086h12.487c.6 0 1.086.486 1.086 1.086s-.486 1.086-1.086 1.086z"/><use xlink:href="#B"/><path d="M33.438 30.65h-.76c-.388 0-.747-.207-.941-.543s-.194-.75 0-1.086.553-.543.941-.543h.76c.6 0 1.086.486 1.086 1.086s-.486 1.086-1.086 1.086z"/><use xlink:href="#B" x="31.741" y="-9.388"/><path d="M65.179 21.262h-.76c-.6 0-1.086-.486-1.086-1.086s.486-1.086 1.086-1.086h.76c.388 0 .747.207.941.543s.194.75 0 1.086-.553.543-.941.543zm10.344 33.097c-.491 0-.934-.296-1.122-.749s-.084-.976.263-1.323.869-.451 1.323-.263.749.631.749 1.122c0 .67-.544 1.214-1.214 1.214z"/><circle cx="75.523" cy="56.819" r="1.214"/><path d="M76.737 60.492c0 .491-.296.934-.749 1.122s-.976.084-1.323-.263-.451-.869-.263-1.323.631-.749 1.122-.749c.67 0 1.214.544 1.214 1.214"/></g><g fill="#8f00fc"><path d="M80.297 23.805c-.439 0-.835-.265-1.003-.67a1.09 1.09 0 0 1 .235-1.184l2.172-2.172c.272-.284.677-.399 1.057-.3s.678.396.777.777-.015.785-.299 1.058l-2.172 2.172c-.203.204-.48.319-.768.319zM20.954 85.708c-.439 0-.835-.265-1.003-.67a1.09 1.09 0 0 1 .235-1.184l2.172-2.172c.272-.284.677-.399 1.057-.3s.678.396.777.777-.015.785-.299 1.058l-2.172 2.172a1.08 1.08 0 0 1-.768.319z"/><use xlink:href="#C"/><use xlink:href="#C" x="-79.948" y="-8.658"/><path d="M38.951 5.215a1.08 1.08 0 0 1-.768-.318l-1.4-1.4-1.4 1.4c-.204.204-.48.318-.768.318s-.564-.114-.768-.318-.318-.48-.318-.767.114-.564.318-.767l2.172-2.172c.204-.204.48-.318.768-.318s.564.114.768.318l2.172 2.172c.204.204.318.48.318.767s-.114.564-.318.767-.485.321-.776.318z"/></g><defs ><path id="B" d="M28.938 30.65h-2.715c-.6 0-1.086-.486-1.086-1.086s.486-1.086 1.086-1.086h2.715c.6 0 1.086.486 1.086 1.086s-.486 1.086-1.086 1.086z"/><path id="C" d="M97.74 59.274a1.08 1.08 0 0 1-.768-.318l-1.4-1.4-1.4 1.4c-.426.409-1.102.402-1.52-.015s-.425-1.093-.016-1.52l2.172-2.172c.204-.204.48-.318.768-.318s.564.114.768.318l2.172 2.172c.311.311.404.778.235 1.184s-.564.67-1.003.67z"/></defs></svg>