<svg xmlns="http://www.w3.org/2000/svg" xmlns:xlink="http://www.w3.org/1999/xlink" width="106.334" height="100" xmlns:v="https://vecta.io/nano"><path d="M87.195 39.73a34.64 34.64 0 0 0 .313-4.932C87.308 16.046 72.142.9 53.389.726a34.34 34.34 0 0 0-34.565 34.341c0 1.559.105 3.117.314 4.662.815 6.19-2.038 12.29-7.313 15.631-7.4 4.708-11.826 10.7-11.826 17.233 0 15.135 23.8 27.4 53.167 27.4s53.167-12.27 53.167-27.4c0-6.53-4.431-12.526-11.827-17.234-5.275-3.341-8.129-9.441-7.313-15.631z" fill="#fdfdff"/><path d="M35.413 23.856a2.07 2.07 0 0 0 2.073 1.972h5.715V43.65c0 .551.219 1.079.608 1.468s.917.608 1.468.608h15.779c.551 0 1.079-.219 1.468-.608s.608-.917.608-1.468V25.828h5.715a2.07 2.07 0 0 0 2.079-1.972l.007-5.167H35.406z" fill="#fff"/><use xlink:href="#B" fill="#8f00fc"/><path d="M79.319 99.688h-52.3a1.04 1.04 0 0 1-1.038-1.038V56.265a1.04 1.04 0 0 1 1.038-1.038h52.3a1.04 1.04 0 0 1 1.038 1.038v42.386a1.04 1.04 0 0 1-1.038 1.037z" fill="#00008a" opacity=".1"/><g fill="#fff"><path d="M92.39 30.126l-15.785 15.79c-.389.389-.608.917-.608 1.468v14.265h4.36V48.33l15.115-15.12c.243-.243.243-.638 0-.881l-2.2-2.2c-.243-.243-.638-.243-.881 0zm-79.331 0l-2.2 2.2c-.243.243-.243.638 0 .881l15.116 15.116v13.319h4.36V47.377c0-.551-.219-1.079-.608-1.468L13.942 30.124a.62.62 0 0 0-.442-.182.63.63 0 0 0-.441.184z"/><path d="M43.201 20.871V38.69c0 .551.219 1.079.608 1.468s.917.608 1.468.608h15.779c.551 0 1.079-.219 1.468-.608s.608-.917.608-1.468V20.868h5.715c.84 0 1.597-.506 1.918-1.282s.144-1.669-.45-2.262L54.634 1.643c-.389-.389-.917-.608-1.468-.608s-1.079.219-1.468.608L36.017 17.324c-.594.594-.771 1.487-.45 2.262s1.078 1.282 1.918 1.282zm36.118 74.457h-52.3a1.04 1.04 0 0 1-1.038-1.038V51.899a1.04 1.04 0 0 1 1.038-1.038h52.3a1.04 1.04 0 0 1 1.038 1.038v42.386a1.04 1.04 0 0 1-1.038 1.043z"/></g><g fill="#8f00fc"><path d="M59.295 65.191h-12.25a1.04 1.04 0 0 1-1.038-1.038V50.865h14.326v13.288a1.04 1.04 0 0 1-1.038 1.038z"/><path d="M53.167 65.191h-6.125a1.04 1.04 0 0 1-1.038-1.038V50.865h7.163zm-1.453 30.137H31.263V77.182a1.04 1.04 0 0 1 1.038-1.038h18.375a1.04 1.04 0 0 1 1.038 1.038v18.146z"/></g><g fill="#00008a"><path d="M37.502 81.516h-2.6a1.04 1.04 0 0 1-1.038-1.038 1.04 1.04 0 0 1 1.038-1.038h2.6a1.04 1.04 0 0 1 1.038 1.038 1.04 1.04 0 0 1-1.038 1.038z"/><use xlink:href="#C"/><use xlink:href="#C" y="4.153"/></g><g fill="#8f00fc"><path d="M16.356 66.643c-.275.001-.539-.107-.734-.3l-1.342-1.342-1.342 1.342a1.04 1.04 0 0 1-1.774-.735 1.04 1.04 0 0 1 .305-.735l2.076-2.076a1.04 1.04 0 0 1 .734-.3 1.04 1.04 0 0 1 .734.3l2.076 2.076a1.04 1.04 0 0 1 0 1.469c-.195.193-.459.301-.733.3z"/><use xlink:href="#B" x="11.631" y="37.434"/><use xlink:href="#B" x="-46.636" y="8.44"/></g><path d="M34.375 23.856v.058a3.09 3.09 0 0 0 3.11 2.951h4.676V43.65a3.12 3.12 0 0 0 3.115 3.115h15.78a3.12 3.12 0 0 0 3.115-3.115V26.867h4.676a3.09 3.09 0 0 0 3.11-2.951v-.058l.007-4.953c.034-.865-.298-1.704-.916-2.31a1.04 1.04 0 0 0-1.774.735 1.04 1.04 0 0 0 .305.735 1.02 1.02 0 0 1 .225 1.131 1.02 1.02 0 0 1-.959.641H63.13a1.04 1.04 0 0 0-1.038 1.038v17.822a1.04 1.04 0 0 1-1.038 1.038h-15.78a1.04 1.04 0 0 1-1.038-1.038V20.874a1.04 1.04 0 0 0-1.038-1.038h-5.715a1.02 1.02 0 0 1-.959-.641 1.02 1.02 0 0 1 .225-1.131L52.43 2.383a1.03 1.03 0 0 1 .734-.3 1.03 1.03 0 0 1 .734.3l10.688 10.688a1.04 1.04 0 0 0 1.774-.735 1.04 1.04 0 0 0-.305-.735L55.367.915c-.582-.585-1.374-.914-2.2-.912a3.11 3.11 0 0 0-2.2.912L35.286 16.596c-.618.606-.95 1.445-.916 2.31zm34.473-1.946a3.18 3.18 0 0 0 1.038-.173v2.082c-.035.546-.488.97-1.035.969h-4.676v-2.879h4.676zm-23.571 19.9h15.78a3.11 3.11 0 0 0 1.038-.181v2.022a1.04 1.04 0 0 1-1.038 1.038h-15.78a1.04 1.04 0 0 1-1.038-1.038v-2.022a3.09 3.09 0 0 0 1.039.178zm-7.791-19.9h4.676v2.879h-4.676c-.547.001-1-.423-1.035-.969v-2.082a3.18 3.18 0 0 0 1.038.173zm58.721 9.684l-2.2-2.2c-.649-.648-1.701-.648-2.35 0l-15.786 15.78c-.585.582-.914 1.374-.912 2.2v3.486a1.04 1.04 0 0 0 1.038 1.038h3.322v42.386h-52.3v-42.38h41.92a1.04 1.04 0 0 0 1.038-1.038 1.04 1.04 0 0 0-1.038-1.038h-37.56v-2.454c.002-.826-.327-1.618-.912-2.2L14.682 29.389c-.649-.648-1.701-.648-2.35 0l-2.2 2.2a1.65 1.65 0 0 0 0 2.35l14.812 14.812v45.535a2.08 2.08 0 0 0 2.076 2.077h52.3a2.08 2.08 0 0 0 2.076-2.077V48.751L96.207 33.94a1.65 1.65 0 0 0 0-2.35zM11.89 32.769l1.615-1.615 15.491 15.491a1.03 1.03 0 0 1 .3.734v2.448h-2.283v-1.5a1.04 1.04 0 0 0-.3-.734zm67.733 14.822a1.04 1.04 0 0 0-.3.734v1.5H77.04v-2.451a1.03 1.03 0 0 1 .3-.734l15.491-15.491 1.615 1.615z" fill="#00008a"/><path d="M21.546 12.392c-.275.001-.539-.107-.734-.3L19.47 10.75l-1.342 1.342a1.04 1.04 0 0 1-1.774-.735 1.04 1.04 0 0 1 .305-.735l2.076-2.076a1.04 1.04 0 0 1 1.469 0l2.076 2.076a1.04 1.04 0 0 1 0 1.469c-.195.193-.459.301-.734.3z" fill="#8f00fc"/><defs ><path id="B" d="M77.247 28.772c-.275.001-.539-.107-.734-.3a1.04 1.04 0 0 1 0-1.469l2.076-2.076a1.04 1.04 0 0 1 1.774.735 1.04 1.04 0 0 1-.305.735l-2.076 2.076c-.195.194-.46.302-.735.3z"/><path id="C" d="M48.092 86.914H34.908a1.04 1.04 0 0 1-1.038-1.038 1.04 1.04 0 0 1 1.038-1.038h13.184a1.04 1.04 0 0 1 1.038 1.038 1.04 1.04 0 0 1-1.038 1.038z"/></defs></svg>