<svg xmlns="http://www.w3.org/2000/svg" xmlns:xlink="http://www.w3.org/1999/xlink" width="112.058" height="100" xmlns:v="https://vecta.io/nano"><path d="M101.827 29.89a29.38 29.38 0 0 1-6.395-13.287 20.42 20.42 0 0 0-5.463-10.564C77.106-6.824 47.89 1.539 24.713 24.713S-6.825 77.106 6.039 89.969c6.114 6.114 15.924 7.431 27.023 4.642 6.457-1.587 13.259-.968 19.323 1.758a42.3 42.3 0 0 0 16.573 3.626c23.183.298 42.338-18.016 43.081-41.189a42.31 42.31 0 0 0-10.212-28.916z" fill="#fdfdff"/><path d="M94.027 44.795L56.215 17.902a2.19 2.19 0 0 0-2.537 0L15.87 44.795a2.19 2.19 0 0 0-.92 1.784V93.77a2.19 2.19 0 0 0 2.189 2.189h75.625a2.19 2.19 0 0 0 2.189-2.189V46.579a2.19 2.19 0 0 0-.92-1.784zm-5.193-35.5h-14.2v15.858h21.105a1.38 1.38 0 0 0 1.38-1.38v-6.2a8.28 8.28 0 0 0-8.285-8.278z" opacity=".1" fill="#00008a"/><path d="M92.759 90.71H17.134a2.19 2.19 0 0 1-2.189-2.189V41.33a2.19 2.19 0 0 1 .92-1.784l37.812-26.893a2.19 2.19 0 0 1 2.537 0l37.813 26.889a2.19 2.19 0 0 1 .92 1.784v47.191a2.19 2.19 0 0 1-2.189 2.189z" fill="#fff"/><path d="M94.947 41.331l-40 27.8-40-27.8c0-.709.343-1.374.921-1.784l37.811-26.894a2.19 2.19 0 0 1 2.539 0l37.811 26.894c.577.411.919 1.076.918 1.784z" fill="#8f00fc"/><g fill="#fff"><path d="M97.114 18.516v-6.2c0-4.573-3.708-8.281-8.281-8.281h-14.2v15.858h21.105a1.38 1.38 0 0 0 1.376-1.377z"/><path d="M89.139 4.037a8.28 8.28 0 0 0-8.282 8.282v38.807l-25.911 18.01-24.839-17.264V12.319a8.28 8.28 0 0 1 8.282-8.282z"/></g><path d="M80.857 36.706H38.082c-.29 0-.568-.115-.774-.32s-.32-.483-.32-.774V18.595c0-.29.115-.568.32-.774s.483-.32.774-.32h42.774v19.2z" fill="#8f00fc"/><path d="M17.133 90.71l36.3-34.881a2.19 2.19 0 0 1 3.033 0l36.3 34.881z" fill="#fff"/><path d="M89.261 2.953a1.08 1.08 0 0 0-.122-.012h-50.75a9.39 9.39 0 0 0-9.376 9.376v16.536l-13.782 9.8a3.29 3.29 0 0 0-1.378 2.635v47.234a3.29 3.29 0 0 0 3.283 3.283h75.625c1.812-.002 3.281-1.471 3.283-3.283V41.288c-.013-1.048-.525-2.027-1.378-2.635l-12.71-9.039v-17.3a7.2 7.2 0 0 1 7.005-7.183c3.918.071 7.058 3.265 7.063 7.184v6.2c0 .158-.128.286-.286.286h-7.435c-.29 0-.568.115-.774.32s-.32.483-.32.774.115.568.32.774.483.32.774.32h7.436a2.48 2.48 0 0 0 2.474-2.475v-6.2a9.39 9.39 0 0 0-8.947-9.364zm-73.223 40.47l28.271 19.65-27.545 26.472c-.434-.155-.724-.565-.725-1.026zm3.812 46.191l34.336-33a1.09 1.09 0 0 1 1.517 0l34.336 33zm73.276-.069L65.581 63.073l28.271-19.65v45.1c-.001.461-.291.871-.725 1.026zm.265-49.108c.145.103.263.241.343.4l-11.785 8.191V32.297zm-13.63-28.12v38.236L63.976 61.528l-6.752-6.489c-1.269-1.226-3.281-1.226-4.55 0l-6.752 6.489L16.159 40.84c.08-.159.198-.297.343-.4l12.514-8.9v12.892c0 .29.115.568.32.774s.483.32.774.32.568-.115.774-.32.32-.483.32-.774V12.321a7.2 7.2 0 0 1 7.187-7.188h44.735a9.36 9.36 0 0 0-3.362 7.188z" fill="#00008a"/><path d="M24.514 16.474a1.09 1.09 0 0 1-.774-.321l-1.415-1.415-1.415 1.415c-.205.205-.484.321-.774.321a1.09 1.09 0 0 1-.774-.321c-.427-.427-.427-1.12 0-1.547l2.189-2.189c.205-.205.484-.321.774-.321a1.09 1.09 0 0 1 .774.321l2.189 2.189c.427.427.427 1.12 0 1.547a1.09 1.09 0 0 1-.774.321zm82.194 28.413a1.09 1.09 0 0 1-.774-.321l-1.415-1.415-1.415 1.415c-.427.427-1.12.427-1.547 0s-.427-1.12 0-1.547l2.189-2.189c.427-.427 1.12-.427 1.547 0l2.189 2.189c.427.427.427 1.12 0 1.547a1.09 1.09 0 0 1-.774.321zM9.729 71.479a1.09 1.09 0 0 1-.774-.321L7.54 69.743l-1.415 1.415c-.205.205-.484.321-.774.321a1.09 1.09 0 0 1-.774-.321c-.427-.427-.427-1.12 0-1.547l2.189-2.189c.205-.205.484-.321.774-.321a1.09 1.09 0 0 1 .774.321l2.189 2.189c.427.427.427 1.12 0 1.547a1.09 1.09 0 0 1-.774.321zm87.385-37.997a1.09 1.09 0 0 1-.774-.321c-.427-.427-.427-1.12 0-1.547l2.189-2.189c.427-.427 1.12-.427 1.547 0s.427 1.12 0 1.547l-2.188 2.189a1.09 1.09 0 0 1-.774.321zm-81.075-5.574a1.09 1.09 0 0 1-.774-.321c-.427-.427-.427-1.12 0-1.547l2.189-2.189c.205-.205.484-.321.774-.321a1.09 1.09 0 0 1 .774.321c.427.427.427 1.12 0 1.547l-2.189 2.189a1.09 1.09 0 0 1-.774.321z" fill="#8f00fc"/><g fill="#00008a"><path d="M70.321 27.987h2.736c.291 0 .571-.116.776-.322a1.1 1.1 0 0 0-.001-1.552 1.09 1.09 0 0 0-.774-.32h-2.736c-.603.002-1.09.491-1.09 1.094a1.09 1.09 0 0 0 1.089 1.1zm-17.728 0h13.242c.291 0 .57-.116.776-.323a1.09 1.09 0 0 0 .318-.777c-.002-.291-.115-.568-.32-.774a1.09 1.09 0 0 0-.774-.32H52.593c-.29 0-.568.115-.774.32a1.09 1.09 0 0 0-.32.774c0 .291.115.568.32.774a1.09 1.09 0 0 0 .774.32zm11.162-3.772h9.3c.29 0 .568-.115.774-.32a1.09 1.09 0 0 0 .32-.774c0-.291-.115-.568-.32-.774a1.09 1.09 0 0 0-.774-.32h-9.3c-.29 0-.568.115-.774.32a1.09 1.09 0 0 0-.32.774c0 .291.115.568.32.774a1.09 1.09 0 0 0 .774.32zM49.967 29.54h23.09c.29 0 .568.115.774.32a1.09 1.09 0 0 1 .32.774c0 .291-.115.568-.32.774a1.09 1.09 0 0 1-.774.32h-23.09c-.29 0-.568-.115-.774-.32a1.09 1.09 0 0 1-.32-.774c0-.291.115-.568.32-.774a1.09 1.09 0 0 1 .774-.32z"/><use xlink:href="#B"/><use xlink:href="#B" y="4.126"/><use xlink:href="#B" y="8.257"/><path d="M47.056 23.269h-4.161c-.29 0-.568-.115-.774-.32s-.32-.483-.32-.774a1.1 1.1 0 0 1 1.093-1.095h4.161c.685-.001 1.241-.557 1.242-1.242s-.557-1.241-1.242-1.242h-3.018c-1.894-.002-3.429-1.537-3.431-3.431s1.537-3.429 3.431-3.431h4.161c.29 0 .568.115.774.32s.32.483.32.774-.115.568-.32.774-.483.32-.774.32h-4.161c-.685.001-1.241.557-1.242 1.242s.557 1.241 1.242 1.242h3.018c1.894.002 3.429 1.537 3.431 3.431s-1.536 3.429-3.43 3.432z"/><path d="M45.546 25.009a1.09 1.09 0 0 1-.774-.321c-.205-.206-.32-.484-.32-.774V11.089c0-.29.115-.568.32-.774a1.09 1.09 0 0 1 .774-.32c.291 0 .568.115.774.32a1.09 1.09 0 0 1 .32.774v12.826c0 .29-.115.568-.32.774a1.09 1.09 0 0 1-.774.32zm-5.263 59.782c0 .29-.115.568-.32.774a1.09 1.09 0 0 1-.774.32h-2.736c-.29 0-.568-.115-.774-.32a1.09 1.09 0 0 1-.32-.774c0-.291.115-.568.32-.774a1.09 1.09 0 0 1 .774-.32h2.736c.29 0 .568.115.774.32a1.09 1.09 0 0 1 .32.774m-1.094-2.675h-2.736c-.29 0-.568-.115-.774-.32a1.09 1.09 0 0 1-.32-.774c0-.291.115-.568.32-.774a1.09 1.09 0 0 1 .774-.32h2.736c.29 0 .568.115.774.32a1.09 1.09 0 0 1 .32.774c0 .291-.115.568-.32.774a1.09 1.09 0 0 1-.774.32z"/></g><defs ><path id="B" d="M38.082 40.237h34.974c.29 0 .568.115.774.32s.32.483.32.774-.115.568-.32.774-.483.32-.774.32H38.082c-.29 0-.568-.115-.774-.32s-.32-.483-.32-.774.115-.568.32-.774.483-.32.774-.32z"/></defs></svg>