<svg xmlns="http://www.w3.org/2000/svg" width="31.5" height="31.5" viewBox="0 0 31.5 31.5"><path d="M28.125,2.25H3.375A3.375,3.375,0,0,0,0,5.625v24.75A3.375,3.375,0,0,0,3.375,33.75h24.75A3.375,3.375,0,0,0,31.5,30.375V5.625A3.375,3.375,0,0,0,28.125,2.25Zm-21.516,27a1.055,1.055,0,0,1-1.028-.818l-1.055-4.57a1.055,1.055,0,0,1,.612-1.207l4.922-2.109a1.055,1.055,0,0,1,1.232.3l2.179,2.664a16.3,16.3,0,0,0,7.789-7.789L18.6,13.543a1.055,1.055,0,0,1-.3-1.232l2.109-4.922a1.055,1.055,0,0,1,1.207-.612l4.57,1.055A1.054,1.054,0,0,1,27,8.859,20.39,20.39,0,0,1,6.609,29.25Z" transform="translate(0 -2.25)" fill="#8f00fc"/></svg>