<svg xmlns="http://www.w3.org/2000/svg" xmlns:xlink="http://www.w3.org/1999/xlink" width="1800" zoomAndPan="magnify" viewBox="0 0 1350 1058.250012" height="1411" preserveAspectRatio="xMidYMid meet" version="1.0"><defs><g/><clipPath id="e189a8060e"><path d="M 0.476562 0 L 1349.519531 0 L 1349.519531 1057.5 L 0.476562 1057.5 Z M 0.476562 0 " clip-rule="nonzero"/></clipPath><clipPath id="c1710ba2a8"><path d="M 758 0 L 979.113281 0 L 979.113281 221 L 758 221 Z M 758 0 " clip-rule="nonzero"/></clipPath><clipPath id="f532bc2788"><path d="M 370.546875 388 L 592 388 L 592 608.570312 L 370.546875 608.570312 Z M 370.546875 388 " clip-rule="nonzero"/></clipPath><clipPath id="9eb5d11f66"><path d="M 370.546875 388 L 426 388 L 426 584 L 370.546875 584 Z M 370.546875 388 " clip-rule="nonzero"/></clipPath><clipPath id="75d1354439"><path d="M 370.546875 0 L 592 0 L 592 221 L 370.546875 221 Z M 370.546875 0 " clip-rule="nonzero"/></clipPath><clipPath id="c530846da9"><path d="M 758 388 L 979.113281 388 L 979.113281 608.570312 L 758 608.570312 Z M 758 388 " clip-rule="nonzero"/></clipPath><clipPath id="e9735014b0"><path d="M 370.546875 21 L 429 21 L 429 221 L 370.546875 221 Z M 370.546875 21 " clip-rule="nonzero"/></clipPath><clipPath id="ad486cae7b"><path d="M 758 550 L 958 550 L 958 608.570312 L 758 608.570312 Z M 758 550 " clip-rule="nonzero"/></clipPath></defs><g clip-path="url(#e189a8060e)"><path fill="#ffffff" d="M 0.476562 0 L 1349.523438 0 L 1349.523438 1057.5 L 0.476562 1057.5 Z M 0.476562 0 " fill-opacity="1" fill-rule="nonzero"/><path fill="#ffffff" d="M 0.476562 0 L 1349.523438 0 L 1349.523438 1057.5 L 0.476562 1057.5 Z M 0.476562 0 " fill-opacity="1" fill-rule="nonzero"/></g><path fill="#38b6ff" d="M 846.019531 166.9375 C 841.503906 166.9375 836.984375 165.339844 833.359375 162.117188 C 789.515625 123.023438 733.269531 101.484375 674.992188 101.484375 C 616.71875 101.484375 560.472656 123.023438 516.628906 162.117188 C 508.789062 169.070312 496.738281 168.460938 489.761719 160.570312 C 482.761719 152.730469 483.445312 140.679688 491.308594 133.703125 C 542.128906 88.390625 607.355469 63.425781 674.992188 63.425781 C 742.632812 63.425781 807.859375 88.390625 858.679688 133.703125 C 866.542969 140.707031 867.226562 152.730469 860.226562 160.570312 C 856.46875 164.78125 851.246094 166.9375 846.019531 166.9375 Z M 846.019531 166.9375 " fill-opacity="1" fill-rule="nonzero"/><path fill="#38b6ff#38b6ff" d="M 871.640625 263.625 C 865.578125 263.625 859.617188 260.734375 855.9375 255.355469 C 814.683594 195.277344 747.046875 159.402344 674.996094 159.402344 C 602.941406 159.402344 535.304688 195.277344 494.050781 255.382812 C 488.113281 264.007812 476.316406 266.316406 467.589844 260.304688 C 458.9375 254.367188 456.730469 242.519531 462.691406 233.867188 C 511.023438 163.386719 590.382812 121.347656 674.996094 121.347656 C 759.605469 121.347656 838.964844 163.414062 887.296875 233.839844 C 893.234375 242.492188 891.027344 254.339844 882.398438 260.277344 C 879.101562 262.5625 875.320312 263.625 871.640625 263.625 Z M 871.640625 263.625 " fill-opacity="1" fill-rule="nonzero"/><path fill="#38b6ff" d="M 627.222656 545.46875 C 622.402344 545.46875 617.554688 543.644531 613.851562 539.988281 C 610.5 536.691406 531.777344 458.042969 531.777344 381.675781 C 531.777344 301.988281 596.015625 237.164062 674.996094 237.164062 C 753.972656 237.164062 818.238281 301.988281 818.238281 381.675781 C 818.238281 392.179688 809.710938 400.703125 799.210938 400.703125 C 788.707031 400.703125 780.179688 392.179688 780.179688 381.675781 C 780.179688 322.996094 733.015625 275.222656 674.996094 275.222656 C 616.996094 275.222656 569.832031 322.96875 569.832031 381.675781 C 569.832031 442.109375 639.933594 512.207031 640.617188 512.917969 C 648.074219 520.328125 648.152344 532.351562 640.769531 539.835938 C 637.039062 543.59375 632.144531 545.46875 627.222656 545.46875 Z M 627.222656 545.46875 " fill-opacity="1" fill-rule="nonzero"/><path fill="#38b6ff" d="M 722.765625 545.46875 C 685.269531 545.46875 598.398438 475.980469 590.003906 398.574219 C 587.007812 370.664062 595.609375 343.085938 613.597656 322.945312 C 629.53125 305.082031 651.171875 295.1875 674.5625 295.0625 C 698.207031 295.542969 719.0625 303.8125 735.351562 320.027344 C 751.84375 336.414062 760.925781 358.308594 760.925781 381.652344 L 760.925781 391.292969 C 760.925781 412.730469 778.125 430.183594 799.234375 430.183594 C 820.34375 430.183594 837.542969 412.730469 837.542969 391.292969 L 837.542969 387.917969 C 837.542969 298.003906 770.921875 223.1875 685.878906 217.65625 C 640.488281 214.609375 597.613281 230.113281 564.582031 261.039062 C 531.472656 292.066406 512.46875 336.035156 512.46875 381.652344 C 512.46875 419.785156 525.664062 456.925781 549.636719 486.253906 C 556.285156 494.398438 555.066406 506.375 546.949219 513.019531 C 538.804688 519.691406 526.828125 518.449219 520.15625 510.332031 C 490.675781 474.230469 474.414062 428.511719 474.414062 381.652344 C 474.414062 325.53125 497.804688 271.441406 538.550781 233.257812 C 579.347656 195.050781 632.675781 176.023438 688.289062 179.675781 C 793.296875 186.550781 875.523438 278.011719 875.523438 387.917969 L 875.523438 391.292969 C 875.523438 433.710938 841.25 468.242188 799.160156 468.242188 C 757.070312 468.242188 722.792969 433.738281 722.792969 391.292969 L 722.792969 381.652344 C 722.792969 368.507812 717.691406 356.203125 708.457031 346.996094 C 699.476562 338.039062 687.578125 333.117188 674.96875 333.117188 L 674.714844 333.117188 C 658.730469 333.191406 648.074219 341.414062 641.9375 348.289062 C 631.253906 360.265625 625.976562 377.515625 627.804688 394.488281 C 634.148438 452.714844 704.246094 507.414062 722.765625 507.414062 C 733.269531 507.414062 741.796875 515.9375 741.796875 526.441406 C 741.796875 536.945312 733.269531 545.46875 722.765625 545.46875 Z M 722.765625 545.46875 " fill-opacity="1" fill-rule="nonzero"/><path fill="#38b6ff" d="M 778.914062 516.523438 C 722.691406 516.523438 654.773438 452.054688 654.773438 372.011719 C 654.773438 361.507812 663.296875 352.984375 673.800781 352.984375 C 684.304688 352.984375 692.828125 361.507812 692.828125 372.011719 C 692.828125 430.769531 744.914062 478.464844 778.914062 478.464844 C 789.414062 478.464844 797.941406 486.992188 797.941406 497.492188 C 797.941406 507.996094 789.414062 516.523438 778.914062 516.523438 Z M 778.914062 516.523438 " fill-opacity="1" fill-rule="nonzero"/><path fill="#1d83d4" d="M 674.996094 63.425781 C 607.355469 63.425781 542.128906 88.390625 491.308594 133.703125 C 483.445312 140.679688 482.761719 152.730469 489.761719 160.570312 C 493.519531 164.78125 498.71875 166.9375 503.945312 166.9375 C 508.460938 166.9375 513.003906 165.339844 516.628906 162.117188 C 560.472656 123.023438 616.71875 101.484375 674.996094 101.484375 Z M 674.996094 63.425781 " fill-opacity="1" fill-rule="nonzero"/><path fill="#1d83d4" d="M 674.996094 121.347656 C 590.382812 121.347656 511.023438 163.414062 462.691406 233.839844 C 456.753906 242.492188 458.960938 254.339844 467.589844 260.277344 C 470.886719 262.5625 474.640625 263.652344 478.347656 263.652344 C 484.410156 263.652344 490.371094 260.734375 494.050781 255.382812 C 535.304688 195.277344 602.941406 159.402344 674.996094 159.402344 Z M 674.996094 121.347656 " fill-opacity="1" fill-rule="nonzero"/><path fill="#1d83d4" d="M 674.996094 237.164062 C 596.015625 237.164062 531.777344 301.988281 531.777344 381.675781 C 531.777344 458.042969 610.527344 536.691406 613.851562 539.988281 C 617.554688 543.644531 622.402344 545.46875 627.222656 545.46875 C 632.117188 545.46875 637.039062 543.59375 640.742188 539.8125 C 648.125 532.351562 648.050781 520.300781 640.589844 512.894531 C 639.90625 512.183594 569.808594 442.085938 569.808594 381.652344 C 569.808594 322.96875 616.972656 275.195312 674.96875 275.195312 L 674.96875 237.164062 Z M 674.996094 237.164062 " fill-opacity="1" fill-rule="nonzero"/><path fill="#1d83d4" d="M 674.539062 295.0625 C 651.144531 295.1875 629.503906 305.082031 613.570312 322.945312 C 595.582031 343.085938 586.984375 370.664062 589.976562 398.574219 C 595.660156 450.835938 637.117188 499.5 674.996094 525.578125 L 674.996094 476.996094 C 652.792969 455.707031 631.203125 425.59375 627.855469 394.488281 C 626.027344 377.542969 631.304688 360.265625 641.988281 348.289062 C 648.125 341.414062 658.78125 333.21875 674.765625 333.117188 L 674.996094 333.117188 L 674.996094 295.0625 C 674.84375 295.085938 674.691406 295.0625 674.539062 295.0625 Z M 674.816406 179.242188 C 624.125 179.242188 576.074219 198.171875 538.574219 233.257812 C 497.832031 271.441406 474.4375 325.53125 474.4375 381.652344 C 474.4375 428.535156 490.703125 474.230469 520.183594 510.332031 C 523.960938 514.921875 529.417969 517.308594 534.949219 517.308594 C 539.183594 517.308594 543.445312 515.914062 546.972656 513.019531 C 555.09375 506.375 556.308594 494.398438 549.664062 486.253906 C 525.714844 456.925781 512.496094 419.785156 512.496094 381.652344 C 512.496094 336.007812 531.496094 292.042969 564.605469 261.039062 C 594.898438 232.675781 633.460938 217.300781 674.664062 217.300781 L 675.019531 217.300781 L 675.019531 179.242188 Z M 674.816406 179.242188 " fill-opacity="1" fill-rule="nonzero"/><path fill="#1d83d4" d="M 673.800781 352.984375 C 663.296875 352.984375 654.773438 361.507812 654.773438 372.011719 C 654.773438 399.082031 662.539062 424.375 674.996094 445.964844 L 674.996094 353.007812 C 674.589844 353.007812 674.207031 352.984375 673.800781 352.984375 Z M 673.800781 352.984375 " fill-opacity="1" fill-rule="nonzero"/><g clip-path="url(#c1710ba2a8)"><path fill="#1d83d4" d="M 954.070312 220.625 C 940.042969 220.625 928.699219 209.257812 928.699219 195.253906 L 928.699219 74.996094 C 928.699219 61.625 917.816406 50.742188 904.472656 50.742188 L 784.214844 50.742188 C 770.183594 50.742188 758.84375 39.375 758.84375 25.371094 C 758.84375 11.367188 770.183594 0 784.214844 0 L 904.472656 0 C 945.828125 0 979.441406 33.640625 979.441406 74.996094 L 979.441406 195.253906 C 979.441406 209.257812 968.101562 220.625 954.070312 220.625 Z M 954.070312 220.625 " fill-opacity="1" fill-rule="nonzero"/></g><g clip-path="url(#f532bc2788)"><path fill="#1d83d4" d="M 565.773438 608.898438 L 445.515625 608.898438 C 404.160156 608.898438 370.546875 575.253906 370.546875 533.902344 L 370.546875 413.644531 C 370.546875 399.640625 381.886719 388.273438 395.917969 388.273438 C 409.945312 388.273438 421.289062 399.640625 421.289062 413.644531 L 421.289062 533.902344 C 421.289062 547.269531 432.171875 558.15625 445.515625 558.15625 L 565.773438 558.15625 C 579.804688 558.15625 591.144531 569.519531 591.144531 583.527344 C 591.144531 597.53125 579.804688 608.898438 565.773438 608.898438 Z M 565.773438 608.898438 " fill-opacity="1" fill-rule="nonzero"/></g><path fill="#2601c7" d="M 904.472656 0 L 784.214844 0 C 770.183594 0 758.84375 11.367188 758.84375 25.371094 C 758.84375 39.375 770.183594 50.742188 784.214844 50.742188 L 904.472656 50.742188 C 909.445312 50.742188 914.0625 52.238281 917.917969 54.824219 L 954.019531 18.722656 C 940.777344 7.078125 923.449219 0 904.472656 0 Z M 904.472656 0 " fill-opacity="1" fill-rule="nonzero"/><g clip-path="url(#9eb5d11f66)"><path fill="#2601c7" d="M 395.917969 388.273438 C 381.886719 388.273438 370.546875 399.640625 370.546875 413.644531 L 370.546875 533.902344 C 370.546875 552.878906 377.625 570.230469 389.269531 583.449219 L 425.371094 547.347656 C 422.785156 543.515625 421.289062 538.875 421.289062 533.902344 L 421.289062 413.644531 C 421.289062 399.640625 409.945312 388.273438 395.917969 388.273438 Z M 395.917969 388.273438 " fill-opacity="1" fill-rule="nonzero"/></g><g clip-path="url(#75d1354439)"><path fill="#1d83d4" d="M 395.917969 220.625 C 381.886719 220.625 370.546875 209.257812 370.546875 195.253906 L 370.546875 74.996094 C 370.546875 33.640625 404.160156 0 445.515625 0 L 565.773438 0 C 579.804688 0 591.144531 11.367188 591.144531 25.371094 C 591.144531 39.375 579.804688 50.742188 565.773438 50.742188 L 445.515625 50.742188 C 432.171875 50.742188 421.289062 61.625 421.289062 74.996094 L 421.289062 195.253906 C 421.289062 209.257812 409.945312 220.625 395.917969 220.625 Z M 395.917969 220.625 " fill-opacity="1" fill-rule="nonzero"/></g><g clip-path="url(#c530846da9)"><path fill="#1d83d4" d="M 904.472656 608.898438 L 784.214844 608.898438 C 770.183594 608.898438 758.84375 597.53125 758.84375 583.527344 C 758.84375 569.519531 770.183594 558.15625 784.214844 558.15625 L 904.472656 558.15625 C 917.816406 558.15625 928.699219 547.269531 928.699219 533.902344 L 928.699219 413.644531 C 928.699219 399.640625 940.042969 388.273438 954.070312 388.273438 C 968.101562 388.273438 979.441406 399.640625 979.441406 413.644531 L 979.441406 533.902344 C 979.441406 575.253906 945.828125 608.898438 904.472656 608.898438 Z M 904.472656 608.898438 " fill-opacity="1" fill-rule="nonzero"/></g><g clip-path="url(#e9735014b0)"><path fill="#2601c7" d="M 392.972656 21.539062 C 379.148438 35.136719 370.546875 54.089844 370.546875 74.996094 L 370.546875 195.253906 C 370.546875 209.257812 381.886719 220.625 395.917969 220.625 C 409.945312 220.625 421.289062 209.257812 421.289062 195.253906 L 421.289062 74.996094 C 421.289062 68.09375 424.203125 61.828125 428.847656 57.414062 Z M 392.972656 21.539062 " fill-opacity="1" fill-rule="nonzero"/></g><g clip-path="url(#ad486cae7b)"><path fill="#2601c7" d="M 922.027344 550.59375 C 917.613281 555.238281 911.371094 558.15625 904.472656 558.15625 L 784.214844 558.15625 C 770.183594 558.15625 758.84375 569.519531 758.84375 583.527344 C 758.84375 597.53125 770.183594 608.898438 784.214844 608.898438 L 904.472656 608.898438 C 925.378906 608.898438 944.304688 600.296875 957.902344 586.46875 Z M 922.027344 550.59375 " fill-opacity="1" fill-rule="nonzero"/></g><g fill="#cb6ce6" fill-opacity="1"><g transform="translate(19.331862, 983.723645)"><g><path d="M 252.421875 -206.765625 L 252.421875 0 L 202.0625 0 L 202.0625 -124 L 155.8125 0 L 115.171875 0 L 68.625 -124.296875 L 68.625 0 L 18.265625 0 L 18.265625 -206.765625 L 77.765625 -206.765625 L 135.78125 -63.625 L 193.21875 -206.765625 Z M 252.421875 -206.765625 "/></g></g></g><g fill="#cb6ce6" fill-opacity="1"><g transform="translate(289.727185, 983.723645)"><g><path d="M 173.1875 -84.828125 C 173.1875 -80.117188 172.894531 -75.210938 172.3125 -70.109375 L 58.3125 -70.109375 C 59.101562 -59.890625 62.394531 -52.078125 68.1875 -46.671875 C 73.976562 -41.273438 81.097656 -38.578125 89.546875 -38.578125 C 102.109375 -38.578125 110.84375 -43.878906 115.75 -54.484375 L 169.359375 -54.484375 C 166.609375 -43.691406 161.648438 -33.972656 154.484375 -25.328125 C 147.316406 -16.691406 138.332031 -9.914062 127.53125 -5 C 116.738281 -0.09375 104.664062 2.359375 91.3125 2.359375 C 75.207031 2.359375 60.867188 -1.078125 48.296875 -7.953125 C 35.734375 -14.828125 25.914062 -24.644531 18.84375 -37.40625 C 11.78125 -50.164062 8.25 -65.085938 8.25 -82.171875 C 8.25 -99.253906 11.734375 -114.175781 18.703125 -126.9375 C 25.671875 -139.707031 35.4375 -149.53125 48 -156.40625 C 60.570312 -163.28125 75.007812 -166.71875 91.3125 -166.71875 C 107.21875 -166.71875 121.351562 -163.378906 133.71875 -156.703125 C 146.09375 -150.023438 155.765625 -140.5 162.734375 -128.125 C 169.703125 -115.757812 173.1875 -101.328125 173.1875 -84.828125 Z M 121.640625 -98.078125 C 121.640625 -106.722656 118.691406 -113.597656 112.796875 -118.703125 C 106.910156 -123.804688 99.550781 -126.359375 90.71875 -126.359375 C 82.28125 -126.359375 75.160156 -123.90625 69.359375 -119 C 63.566406 -114.09375 59.984375 -107.117188 58.609375 -98.078125 Z M 121.640625 -98.078125 "/></g></g></g><g fill="#cb6ce6" fill-opacity="1"><g transform="translate(471.168924, 983.723645)"><g><path d="M 180.5625 -164.359375 L 180.5625 0 L 130.1875 0 L 130.1875 -22.390625 C 125.082031 -15.117188 118.160156 -9.273438 109.421875 -4.859375 C 100.679688 -0.441406 91.007812 1.765625 80.40625 1.765625 C 67.84375 1.765625 56.75 -1.03125 47.125 -6.625 C 37.5 -12.21875 30.035156 -20.316406 24.734375 -30.921875 C 19.441406 -41.523438 16.796875 -53.992188 16.796875 -68.328125 L 16.796875 -164.359375 L 66.859375 -164.359375 L 66.859375 -75.109375 C 66.859375 -64.109375 69.707031 -55.566406 75.40625 -49.484375 C 81.101562 -43.398438 88.757812 -40.359375 98.375 -40.359375 C 108.195312 -40.359375 115.953125 -43.398438 121.640625 -49.484375 C 127.335938 -55.566406 130.1875 -64.109375 130.1875 -75.109375 L 130.1875 -164.359375 Z M 180.5625 -164.359375 "/></g></g></g><g fill="#2601c7" fill-opacity="1"><g transform="translate(669.695142, 983.723645)"><g><path d="M 143.4375 -106.03125 C 155.414062 -103.476562 165.035156 -97.535156 172.296875 -88.203125 C 179.566406 -78.878906 183.203125 -68.234375 183.203125 -56.265625 C 183.203125 -38.984375 177.164062 -25.285156 165.09375 -15.171875 C 153.019531 -5.054688 136.179688 0 114.578125 0 L 18.265625 0 L 18.265625 -206.765625 L 111.34375 -206.765625 C 132.351562 -206.765625 148.796875 -201.953125 160.671875 -192.328125 C 172.554688 -182.710938 178.5 -169.660156 178.5 -153.171875 C 178.5 -140.992188 175.304688 -130.878906 168.921875 -122.828125 C 162.535156 -114.773438 154.039062 -109.175781 143.4375 -106.03125 Z M 68.625 -123.125 L 101.625 -123.125 C 109.863281 -123.125 116.191406 -124.9375 120.609375 -128.5625 C 125.035156 -132.195312 127.25 -137.550781 127.25 -144.625 C 127.25 -151.6875 125.035156 -157.082031 120.609375 -160.8125 C 116.191406 -164.550781 109.863281 -166.421875 101.625 -166.421875 L 68.625 -166.421875 Z M 105.75 -40.640625 C 114.1875 -40.640625 120.710938 -42.554688 125.328125 -46.390625 C 129.941406 -50.222656 132.25 -55.769531 132.25 -63.03125 C 132.25 -70.300781 129.84375 -75.992188 125.03125 -80.109375 C 120.21875 -84.234375 113.59375 -86.296875 105.15625 -86.296875 L 68.625 -86.296875 L 68.625 -40.640625 Z M 105.75 -40.640625 "/></g></g></g><g fill="#2601c7" fill-opacity="1"><g transform="translate(863.802461, 983.723645)"><g><path d="M 68.625 -217.96875 L 68.625 0 L 18.265625 0 L 18.265625 -217.96875 Z M 68.625 -217.96875 "/></g></g></g><g fill="#2601c7" fill-opacity="1"><g transform="translate(950.694208, 983.723645)"><g><path d="M 180.5625 -164.359375 L 180.5625 0 L 130.1875 0 L 130.1875 -22.390625 C 125.082031 -15.117188 118.160156 -9.273438 109.421875 -4.859375 C 100.679688 -0.441406 91.007812 1.765625 80.40625 1.765625 C 67.84375 1.765625 56.75 -1.03125 47.125 -6.625 C 37.5 -12.21875 30.035156 -20.316406 24.734375 -30.921875 C 19.441406 -41.523438 16.796875 -53.992188 16.796875 -68.328125 L 16.796875 -164.359375 L 66.859375 -164.359375 L 66.859375 -75.109375 C 66.859375 -64.109375 69.707031 -55.566406 75.40625 -49.484375 C 81.101562 -43.398438 88.757812 -40.359375 98.375 -40.359375 C 108.195312 -40.359375 115.953125 -43.398438 121.640625 -49.484375 C 127.335938 -55.566406 130.1875 -64.109375 130.1875 -75.109375 L 130.1875 -164.359375 Z M 180.5625 -164.359375 "/></g></g></g><g fill="#2601c7" fill-opacity="1"><g transform="translate(1149.219684, 983.723645)"><g><path d="M 173.1875 -84.828125 C 173.1875 -80.117188 172.894531 -75.210938 172.3125 -70.109375 L 58.3125 -70.109375 C 59.101562 -59.890625 62.394531 -52.078125 68.1875 -46.671875 C 73.976562 -41.273438 81.097656 -38.578125 89.546875 -38.578125 C 102.109375 -38.578125 110.84375 -43.878906 115.75 -54.484375 L 169.359375 -54.484375 C 166.609375 -43.691406 161.648438 -33.972656 154.484375 -25.328125 C 147.316406 -16.691406 138.332031 -9.914062 127.53125 -5 C 116.738281 -0.09375 104.664062 2.359375 91.3125 2.359375 C 75.207031 2.359375 60.867188 -1.078125 48.296875 -7.953125 C 35.734375 -14.828125 25.914062 -24.644531 18.84375 -37.40625 C 11.78125 -50.164062 8.25 -65.085938 8.25 -82.171875 C 8.25 -99.253906 11.734375 -114.175781 18.703125 -126.9375 C 25.671875 -139.707031 35.4375 -149.53125 48 -156.40625 C 60.570312 -163.28125 75.007812 -166.71875 91.3125 -166.71875 C 107.21875 -166.71875 121.351562 -163.378906 133.71875 -156.703125 C 146.09375 -150.023438 155.765625 -140.5 162.734375 -128.125 C 169.703125 -115.757812 173.1875 -101.328125 173.1875 -84.828125 Z M 121.640625 -98.078125 C 121.640625 -106.722656 118.691406 -113.597656 112.796875 -118.703125 C 106.910156 -123.804688 99.550781 -126.359375 90.71875 -126.359375 C 82.28125 -126.359375 75.160156 -123.90625 69.359375 -119 C 63.566406 -114.09375 59.984375 -107.117188 58.609375 -98.078125 Z M 121.640625 -98.078125 "/></g></g></g></svg>