<svg xmlns="http://www.w3.org/2000/svg" width="61.765" height="60"  fill="#8f00fc" xmlns:v="https://vecta.io/nano"><path d="M44.506 1.765h-2.621c-.487 0-.883-.395-.883-.882S41.398 0 41.885 0h2.621c.487 0 .883.395.883.882s-.395.882-.883.882zm13.729 44.117H3.529A3.53 3.53 0 0 1 0 42.353V3.529A3.53 3.53 0 0 1 3.529 0h23.436c.487 0 .883.395.883.882s-.395.882-.883.882H3.529c-.974.001-1.763.79-1.764 1.764v38.824c0 .468.186.917.517 1.248s.78.517 1.248.517h54.705c.468 0 .917-.186 1.248-.517s.517-.78.517-1.248V3.529c0-.468-.186-.917-.517-1.248s-.78-.517-1.248-.517h-7.553c-.487 0-.883-.395-.883-.882S50.194 0 50.682 0h7.553a3.53 3.53 0 0 1 3.529 3.529v38.825a3.53 3.53 0 0 1-3.529 3.529z"/><path d="M35.709 1.765h-2.568c-.487 0-.883-.395-.883-.882S32.654 0 33.141 0h2.568c.487 0 .883.395.883.882s-.395.882-.883.882zm3.996 51.177H22.058a.88.88 0 0 1-.882-.883V45a.88.88 0 0 1 .882-.882h17.647a.88.88 0 0 1 .882.882v7.059a.88.88 0 0 1-.882.883zm-16.764-1.765h15.882v-5.294H22.941z"/><path d="M44.559 60H17.206a.88.88 0 0 1-.882-.882v-3.126a4.82 4.82 0 0 1 4.816-4.816h19.484a4.82 4.82 0 0 1 4.816 4.816v3.125a.88.88 0 0 1-.881.883zm-26.47-1.765h25.588v-2.243c-.002-1.685-1.368-3.05-3.053-3.051H21.14c-1.684.002-3.049 1.367-3.051 3.051zm42.793-23.823h-60c-.487 0-.883-.395-.883-.883s.395-.883.883-.883h60c.487 0 .883.395.883.883s-.395.883-.883.883zm-29.999 8.162a3.31 3.31 0 1 1 3.309-3.309 3.31 3.31 0 0 1-3.309 3.309zm0-4.853c-.625-.001-1.189.374-1.429.951s-.109 1.241.333 1.684 1.106.575 1.683.336.954-.802.954-1.427c0-.853-.691-1.544-1.544-1.544zm22.058-10.368a.88.88 0 0 1-.882-.883v-15c0-.487.395-.883.883-.883a.88.88 0 0 1 .882.883v15a.88.88 0 0 1-.883.883zm-6.47 0a.88.88 0 0 1-.882-.882v-9.707c0-.487.395-.883.883-.883a.88.88 0 0 1 .882.883v9.706a.88.88 0 0 1-.883.883zm-6.472 0a.88.88 0 0 1-.882-.882V13.235c0-.487.395-.883.883-.883s.883.395.883.883v13.236a.88.88 0 0 1-.883.882zm-6.47 0a.88.88 0 0 1-.882-.883v-7.059c0-.487.395-.883.883-.883s.883.395.883.883v7.059a.88.88 0 0 1-.883.883zM14.89 25.808a9.82 9.82 0 0 1-9.816-9.816 9.82 9.82 0 0 1 9.816-9.816 9.82 9.82 0 0 1 9.816 9.816c0 2.603-1.034 5.1-2.875 6.941s-4.338 2.875-6.941 2.875zm0-17.868c-4.446 0-8.051 3.605-8.051 8.051s3.605 8.051 8.051 8.051 8.051-3.605 8.051-8.051A8.05 8.05 0 0 0 14.89 7.94zm0 8.939c-1.674-.001-3.03-1.357-3.032-3.031a2.67 2.67 0 0 1 .083-.672c.31-1.392 1.55-2.378 2.976-2.366s2.649 1.018 2.936 2.415c.077.468-.23.913-.695 1.008a.88.88 0 0 1-1.034-.655 1.26 1.26 0 0 0-2.462 0 1.05 1.05 0 0 0-.036.273 1.27 1.27 0 0 0 1.267 1.266c.487 0 .883.395.883.883s-.395.883-.883.883z"/><path d="M14.89 21.168c-1.432 0-2.668-1.005-2.96-2.407-.077-.468.23-.913.695-1.008s.921.194 1.034.655a1.26 1.26 0 0 0 2.462 0 1.05 1.05 0 0 0 .036-.273c-.003-.697-.57-1.26-1.267-1.259-.487 0-.882-.395-.882-.883s.395-.883.883-.883c1.671 0 3.028 1.353 3.032 3.024.001.227-.027.452-.083.672a3.01 3.01 0 0 1-2.949 2.36z"/><path d="M14.873 22.255a.88.88 0 0 1-.882-.882v-1.087c0-.487.395-.883.883-.883s.883.395.883.883v1.087a.88.88 0 0 1-.883.882zm.032-9.673a.88.88 0 0 1-.882-.879v-1.09c0-.487.395-.883.883-.883s.883.395.883.883v1.09a.88.88 0 0 1-.883.879z"/></svg>