<svg xmlns="http://www.w3.org/2000/svg" xmlns:xlink="http://www.w3.org/1999/xlink" width="60" height="60" xmlns:v="https://vecta.io/nano"><g fill="#8f00fc"><path d="M33.292 60h-6.584a1.66 1.66 0 0 1-1.635-1.414l-.5-3.437a25.21 25.21 0 0 1-8.523-3.524L13.274 53.7a1.66 1.66 0 0 1-2.157-.155l-4.658-4.662a1.66 1.66 0 0 1-.159-2.157l2.073-2.775a25.22 25.22 0 0 1-3.524-8.523l-3.437-.5A1.66 1.66 0 0 1 0 33.292v-6.584a1.66 1.66 0 0 1 1.414-1.635l3.437-.5c.641-3.033 1.835-5.923 3.524-8.523L6.3 13.274a1.66 1.66 0 0 1 .155-2.157l4.659-4.659a1.66 1.66 0 0 1 2.16-.158l2.775 2.073c2.6-1.689 5.49-2.883 8.523-3.524l.5-3.437A1.66 1.66 0 0 1 26.708 0h6.585a1.66 1.66 0 0 1 1.635 1.414l.5 3.437c3.033.641 5.923 1.835 8.523 3.524L46.726 6.3c.659-.487 1.574-.421 2.157.155l4.659 4.659a1.66 1.66 0 0 1 .156 2.157l-2.073 2.775c1.689 2.6 2.883 5.49 3.524 8.523l3.437.5A1.66 1.66 0 0 1 60 26.708v6.585a1.66 1.66 0 0 1-1.414 1.635l-3.437.5a25.22 25.22 0 0 1-3.524 8.523l2.075 2.774a1.66 1.66 0 0 1-.155 2.157l-4.659 4.659a1.66 1.66 0 0 1-2.157.156l-2.775-2.073a25.21 25.21 0 0 1-8.523 3.524l-.5 3.437A1.66 1.66 0 0 1 33.292 60zM16.021 49.719a.86.86 0 0 1 .483.149 23.55 23.55 0 0 0 8.988 3.717c.36.068.637.356.69.719l.588 4.035 6.523-.053.526-3.982a.86.86 0 0 1 .686-.719 23.55 23.55 0 0 0 8.988-3.717.86.86 0 0 1 1 .021l3.257 2.434 4.578-4.653-2.437-3.178a.86.86 0 0 1-.021-1 23.53 23.53 0 0 0 3.72-8.988.86.86 0 0 1 .719-.686l4.035-.588-.053-6.473-3.982-.58c-.363-.053-.651-.33-.719-.69a23.53 23.53 0 0 0-3.722-8.987.86.86 0 0 1 .021-1l2.434-3.257-4.652-4.57-3.179 2.441a.86.86 0 0 1-1 .021 23.53 23.53 0 0 0-8.988-3.72.86.86 0 0 1-.686-.719l-.588-4.035-6.527.053-.522 3.986c-.053.363-.33.651-.69.719a23.53 23.53 0 0 0-8.991 3.713.86.86 0 0 1-1-.021l-3.249-2.434-4.578 4.652 2.441 3.179a.86.86 0 0 1 .021 1 23.53 23.53 0 0 0-3.72 8.988c-.068.36-.356.637-.719.69l-4.035.588.053 6.523 3.982.526a.86.86 0 0 1 .719.686 23.53 23.53 0 0 0 3.717 8.988.86.86 0 0 1-.021 1l-2.434 3.248 4.653 4.578 3.179-2.438a.86.86 0 0 1 .513-.167zm29.546-27.896c-.307 0-.59-.163-.743-.429a16.84 16.84 0 0 0-1.419-2.083c-.288-.37-.226-.903.141-1.196s.9-.237 1.197.125a18.57 18.57 0 0 1 1.564 2.3.86.86 0 0 1 .001.857c-.152.265-.436.429-.742.429zM30 48.857A18.86 18.86 0 0 1 11.143 30 18.86 18.86 0 0 1 30 11.143l.885.027c.472.031.83.437.8.909a.84.84 0 0 1-.285.592c-.171.15-.396.226-.624.208a12.46 12.46 0 0 0-.778-.024c-9.467.001-17.141 7.676-17.141 17.144s7.675 17.142 17.142 17.142S47.142 39.467 47.143 30a16.2 16.2 0 0 0-.154-2.271.86.86 0 0 1 .729-.971.86.86 0 0 1 .971.729 17.89 17.89 0 0 1 .171 2.512C48.848 40.41 40.411 48.847 30 48.857zm9.6-33.223a.85.85 0 0 1-.46-.135 16.74 16.74 0 0 0-2.124-1.149c-.292-.117-.497-.384-.533-.696s.101-.62.358-.8a.86.86 0 0 1 .874-.066 18.52 18.52 0 0 1 2.348 1.27c.322.205.47.598.362.964a.86.86 0 0 1-.825.616zM27.279 34.286a.86.86 0 0 1-.792-.529c-.133-.32-.059-.689.186-.934l2.469-2.469v-8.068a.86.86 0 0 1 .857-.857.86.86 0 0 1 .857.857v8.422c0 .227-.09.445-.251.606l-2.721 2.721c-.16.16-.378.251-.605.251zM30 17.866c-.227 0-.445-.09-.606-.251s-.251-.379-.251-.606v-.483c0-.306.163-.589.428-.742s.592-.153.857 0 .429.436.428.742v.483c0 .227-.09.445-.251.606s-.379.251-.606.251z"/><use xlink:href="#B"/><use xlink:href="#C"/><use xlink:href="#D"/><path d="M30 44.331c-.472 0-.855-.381-.857-.853v-.483c0-.306.163-.589.428-.742s.592-.153.857 0 .429.436.428.742v.483c-.002.472-.385.853-.857.853z"/><use xlink:href="#B" x="18.713" y="18.713"/><use xlink:href="#C" x="26.469"/><use xlink:href="#D" x="18.713" y="-18.713"/></g><defs ><path id="B" d="M20.814 21.671c-.227 0-.445-.09-.606-.251l-.343-.343c-.335-.335-.335-.877 0-1.212s.877-.335 1.212 0l.343.343c.245.245.318.614.186.934s-.445.529-.792.529z"/><path id="C" d="M17.009 30.857h-.483c-.306 0-.589-.163-.742-.428s-.153-.592 0-.857.436-.429.742-.428h.483c.306 0 .589.163.742.428s.153.592 0 .857-.436.429-.742.428z"/><path id="D" d="M20.473 40.384c-.347 0-.659-.209-.792-.529s-.059-.689.186-.934l.343-.343c.335-.335.877-.335 1.212 0s.335.877 0 1.212l-.343.343c-.161.161-.379.251-.606.251z"/></defs></svg>