<svg xmlns="http://www.w3.org/2000/svg" width="60" height="60"  fill="#8f00fc" xmlns:v="https://vecta.io/nano"><path d="M7.714 28.689c-.227 0-.446-.09-.606-.251a.86.86 0 0 1-.251-.607v-2.494a.86.86 0 0 1 .857-.857.86.86 0 0 1 .857.857v2.494a.86.86 0 0 1-.251.607c-.161.161-.379.251-.606.251zm0 31.311a.86.86 0 0 1-.857-.857V42.38a.86.86 0 0 1 .857-.857.86.86 0 0 1 .857.857v16.763c0 .227-.09.445-.251.606S7.941 60 7.714 60zm0-22.766a.86.86 0 0 1-.857-.857v-2.546a.86.86 0 0 1 .857-.857.86.86 0 0 1 .857.857v2.546c0 .227-.09.445-.251.606s-.379.251-.606.251zm0-17.04a.86.86 0 0 1-.857-.857V.857A.86.86 0 0 1 7.714 0a.86.86 0 0 1 .857.857v18.48c0 .227-.09.445-.251.606s-.379.251-.606.251z"/><path d="M59.143 53.143H.857c-.473 0-.857-.384-.857-.857s.384-.857.857-.857h58.286c.473 0 .857.384.857.857s-.384.857-.857.857z"/><path d="M18 53.143c-.227 0-.446-.09-.606-.251a.86.86 0 0 1-.251-.607V38.571a.86.86 0 0 1 .857-.857.86.86 0 0 1 .857.857v13.714a.86.86 0 0 1-.251.607c-.161.161-.379.251-.606.251zm11.307 0a.86.86 0 0 1-.857-.857V31.714c0-.306.163-.589.428-.742s.592-.153.857 0 .429.436.428.742v20.572a.86.86 0 0 1-.857.857zm9.8 0a.86.86 0 0 1-.857-.857V24.857a.86.86 0 0 1 .857-.857.86.86 0 0 1 .857.857v27.429a.86.86 0 0 1-.857.857zm9.8 0a.86.86 0 0 1-.857-.857V18a.86.86 0 0 1 .857-.857.86.86 0 0 1 .857.857v34.286a.86.86 0 0 1-.857.857z"/><path d="M52.479 22.429c-.227 0-.445-.09-.606-.251l-2.965-2.966-2.966 2.966a.86.86 0 0 1-1.212 0 .86.86 0 0 1 0-1.213l3.572-3.571c.161-.161.379-.251.606-.251s.445.09.606.251l3.573 3.571c.246.245.32.614.187.935s-.446.53-.793.529zm-29.193 3.497c-4.305 0-8.186-2.593-9.834-6.57s-.737-8.555 2.307-11.599a10.64 10.64 0 0 1 11.599-2.306c3.977 1.648 6.57 5.529 6.569 9.834-.001 5.877-4.765 10.64-10.642 10.641zm0-19.571a8.93 8.93 0 1 0 8.928 8.928 8.93 8.93 0 0 0-8.928-8.926zm0 9.792c-1.773-.002-3.209-1.438-3.211-3.211a2.77 2.77 0 0 1 .086-.705 3.2 3.2 0 0 1 6.257.045.86.86 0 0 1-1.114 1.001.86.86 0 0 1-.567-.658 1.49 1.49 0 0 0-2.914 0 1.25 1.25 0 0 0-.04.32 1.5 1.5 0 0 0 1.5 1.5.86.86 0 0 1 .857.857.86.86 0 0 1-.857.857z"/><path d="M23.286 20.847a3.2 3.2 0 0 1-3.136-2.552c-.068-.303.033-.618.264-.826s.555-.274.849-.173.51.351.566.656a1.49 1.49 0 0 0 2.914 0 1.2 1.2 0 0 0 .042-.32c-.001-.396-.16-.776-.441-1.055s-.662-.435-1.059-.434c-.473 0-.857-.384-.857-.857s.384-.857.857-.857a3.21 3.21 0 0 1 3.211 3.2 2.79 2.79 0 0 1-.086.71c-.324 1.466-1.627 2.508-3.129 2.5z"/><path d="M23.265 22.035a.86.86 0 0 1-.857-.857v-1.189c0-.306.163-.589.428-.742s.592-.153.857 0 .429.436.428.742v1.189a.86.86 0 0 1-.857.857zm.038-10.596c-.228 0-.447-.091-.608-.253s-.251-.381-.249-.609v-1.19a.86.86 0 0 1 .857-.857.86.86 0 0 1 .857.857v1.19a.86.86 0 0 1-.857.857z"/></svg>