<svg xmlns="http://www.w3.org/2000/svg" width="57.022" height="60"  fill="#8f00fc" xmlns:v="https://vecta.io/nano"><path d="M34.441 14.579c-.148 0-.294-.041-.421-.118a3.18 3.18 0 0 0-.791-.344c-.29-.07-.518-.292-.596-.58s.008-.595.224-.801.526-.278.81-.188a4.82 4.82 0 0 1 1.2.519c.313.19.461.564.362.917s-.42.596-.785.595zm2.044 6.851H20.536c-.216 0-.423-.086-.576-.239s-.239-.36-.239-.576v-3.266c.004-2.753 2.237-4.984 4.99-4.985h5.971c.298-.01.578.142.73.399s.152.575 0 .831-.432.409-.73.399h-5.971a3.36 3.36 0 0 0-3.356 3.356v2.452h14.316v-2.452a3.27 3.27 0 0 0-.151-.987c-.118-.435.138-.883.573-1.001s.883.138 1.001.573a4.95 4.95 0 0 1 .206 1.415v3.265c0 .45-.365.815-.815.815zm-7.974-11.36c-2.036 0-3.872-1.227-4.652-3.108s-.349-4.047 1.091-5.487S28.556-.396 30.438.383s3.108 2.615 3.108 4.652c0 2.781-2.254 5.035-5.035 5.035zm0-8.441c-1.378 0-2.62.83-3.147 2.103s-.236 2.738.738 3.712 2.439 1.266 3.712.738 2.103-1.769 2.103-3.147c0-.904-.358-1.77-.997-2.409s-1.505-.998-2.409-.998zm19.724 47.008c-2.78-.003-5.032-2.259-5.03-5.039s2.258-5.033 5.038-5.031 5.033 2.257 5.032 5.037a5.04 5.04 0 0 1-1.477 3.561 5.03 5.03 0 0 1-3.563 1.472zm0-8.441c-1.88.003-3.402 1.528-3.401 3.409s1.526 3.404 3.406 3.403a3.41 3.41 0 0 0 3.406-3.404 3.4 3.4 0 0 0-.999-2.411 3.41 3.41 0 0 0-2.412-.997zM56.208 60H40.264c-.45 0-.815-.365-.815-.815v-3.271a4.99 4.99 0 0 1 4.982-4.979h7.609a4.99 4.99 0 0 1 4.982 4.979v3.271c0 .45-.364.814-.814.815zm-15.13-1.629h14.315v-2.457c-.003-1.85-1.503-3.348-3.353-3.35h-7.609c-1.851.002-3.351 1.502-3.353 3.353zM16.759 60H.815C.365 60 0 59.635 0 59.185v-3.271a4.99 4.99 0 0 1 4.982-4.979h7.609a4.99 4.99 0 0 1 4.982 4.982v3.271c-.002.449-.365.811-.814.812zm-15.13-1.629h14.315v-2.457c-.003-1.85-1.503-3.348-3.353-3.35H4.982c-1.85.002-3.35 1.5-3.353 3.35zm7.158-9.734c-2.037 0-3.873-1.226-4.652-3.107s-.349-4.047 1.091-5.487 3.606-1.871 5.487-1.092 3.108 2.615 3.108 4.652c0 2.78-2.254 5.034-5.034 5.035zm0-8.441c-1.378 0-2.62.829-3.147 2.102s-.236 2.738.738 3.712 2.439 1.266 3.712.739 2.103-1.769 2.103-3.147c0-1.881-1.524-3.405-3.405-3.406zm19.724-3.542c-.216 0-.423-.086-.576-.239s-.239-.36-.239-.576v-8.884c.015-.439.375-.786.814-.786s.799.348.815.786v8.885c-.001.449-.365.813-.814.814z"/><path d="M36.494 42.481a.81.81 0 0 1-.479-.156l-7.502-5.476-7.5 5.476c-.235.18-.549.219-.82.101s-.458-.373-.487-.667.103-.581.346-.75l7.983-5.827c.286-.209.675-.209.961 0l7.983 5.827c.284.208.402.575.292.91s-.421.561-.773.562z"/></svg>